<svg width="1080" height="1058" viewBox="0 0 1080 1058" fill="none" xmlns="http://www.w3.org/2000/svg">
<path d="M102.008 794.432L96.032 794.648C92.672 794.648 90.488 794.192 89.48 793.28C88.856 792.8 88.544 792.128 88.544 791.264C88.544 785.84 88.736 778.736 89.12 769.952C89.504 761.12 89.696 754.256 89.696 749.36C89.696 747.392 91.52 745.808 95.168 744.608C98.816 743.408 102.728 742.808 106.904 742.808C114.728 742.808 121.208 745.016 126.344 749.432C131.528 753.848 134.12 759.584 134.12 766.64C134.12 770.192 133.496 773.48 132.248 776.504C131.048 779.528 129.416 782.144 127.352 784.352C125.288 786.512 122.888 788.36 120.152 789.896C114.68 792.92 108.632 794.432 102.008 794.432ZM129.008 768.368C129.008 762.176 126.896 756.992 122.672 752.816C118.496 748.592 113.072 746.48 106.4 746.48C103.136 746.48 99.248 747.56 94.736 749.72C94.736 753.608 94.544 759.44 94.16 767.216C93.776 774.944 93.584 780.296 93.584 783.272C93.584 786.2 93.608 788.288 93.656 789.536C96.344 790.064 99.224 790.328 102.296 790.328C110.072 790.328 116.456 788.432 121.448 784.64C126.488 780.848 129.008 775.424 129.008 768.368ZM148.796 786.944L149.012 791.048C149.012 792.104 148.7 792.848 148.076 793.28C147.5 793.664 146.9 793.856 146.276 793.856C145.7 793.856 145.1 793.76 144.476 793.568C143.42 788 142.604 781.064 142.028 772.76C141.5 764.456 141.188 759.752 141.092 758.648C141.812 757.976 142.556 757.64 143.324 757.64C144.14 757.64 144.86 757.736 145.484 757.928C145.676 759.32 145.82 762.392 145.916 767.144C146.012 771.896 146.132 774.872 146.276 776.072C146.948 772.04 148.148 768.272 149.876 764.768C150.836 762.8 152.084 761.24 153.62 760.088C155.204 758.888 156.884 758.288 158.66 758.288C160.484 758.288 162.14 759.104 163.628 760.736C165.164 762.32 165.932 763.76 165.932 765.056C165.932 765.536 165.644 765.92 165.068 766.208C164.492 766.448 163.844 766.568 163.124 766.568C162.452 766.568 161.924 766.304 161.54 765.776C161.156 765.248 160.892 764.672 160.748 764.048C160.604 763.376 160.292 762.776 159.812 762.248C159.332 761.72 158.684 761.456 157.868 761.456C155.708 761.456 153.86 763.4 152.324 767.288C149.972 773.096 148.796 779.648 148.796 786.944ZM192.336 773.264L191.976 781.544C191.976 785.72 192.456 788.528 193.416 789.968C193.992 790.928 194.784 791.408 195.792 791.408C196.08 791.408 196.488 791.336 197.016 791.192C198.024 790.904 198.864 791.048 199.536 791.624C199.2 793.304 197.52 794.144 194.496 794.144C192.432 794.144 191.064 793.28 190.392 791.552C189.864 790.256 189.48 788.648 189.24 786.728C189 784.76 188.808 783.416 188.664 782.696C185.544 788.648 182.52 792.272 179.592 793.568C178.104 794.24 176.376 794.576 174.408 794.576C172.44 794.576 170.904 793.64 169.8 791.768C168.744 789.848 168.216 787.064 168.216 783.416C168.216 779.768 168.816 775.952 170.016 771.968C171.216 767.936 172.968 764.552 175.272 761.816C177.576 759.032 180.096 757.64 182.832 757.64C186.768 757.64 189.384 759.272 190.68 762.536C191.784 765.32 192.336 768.896 192.336 773.264ZM174.696 770.96C174.024 773.552 173.52 776.024 173.184 778.376C172.848 780.68 172.68 782.744 172.68 784.568C172.68 786.344 173.04 787.88 173.76 789.176C174.528 790.472 175.512 791.12 176.712 791.12C179.304 791.12 181.8 788.672 184.2 783.776C186.6 778.88 187.8 774.32 187.8 770.096C187.8 767.36 187.08 765.104 185.64 763.328C184.68 762.176 183.408 761.6 181.824 761.6C180.288 761.6 178.872 762.512 177.576 764.336C176.328 766.112 175.368 768.32 174.696 770.96ZM205.6 796.16C204.736 796.16 203.8 795.824 202.792 795.152C201.784 794.528 201.28 793.76 201.28 792.848C201.28 791.936 201.808 791.072 202.864 790.256C203.92 789.392 205 788.96 206.104 788.96C207.208 788.96 208.144 789.272 208.912 789.896C209.68 790.52 210.064 791.312 210.064 792.272C210.064 793.184 209.536 794.048 208.48 794.864C207.472 795.728 206.512 796.16 205.6 796.16ZM236.86 765.344C236.86 757.568 236.452 750.464 235.636 744.032C235.636 743.024 236.332 742.52 237.724 742.52C239.116 742.52 240.964 743.864 243.268 746.552C245.572 749.192 247.78 752.096 249.892 755.264C252.004 758.432 254.116 761.36 256.228 764.048C258.388 766.688 259.924 768.008 260.836 768.008C261.748 768.008 263.212 766.616 265.228 763.832C267.292 761 269.308 757.928 271.276 754.616C273.292 751.256 275.452 748.184 277.756 745.4C280.108 742.568 281.98 741.152 283.372 741.152C284.812 741.152 285.532 741.536 285.532 742.304C285.964 748.208 286.18 753.488 286.18 758.144C286.18 762.8 286.156 766.592 286.108 769.52C286.06 772.4 286.012 774.512 285.964 775.856C285.964 777.152 285.892 780.152 285.748 784.856C285.604 789.512 285.532 792.248 285.532 793.064C284.812 794.072 283.828 794.576 282.58 794.576C282.052 794.576 281.548 794.432 281.068 794.144C280.78 788.24 280.636 781.28 280.636 773.264C280.636 765.248 280.708 756.944 280.852 748.352C279.892 749.12 278.524 750.92 276.748 753.752C275.02 756.536 273.34 759.32 271.708 762.104C270.076 764.84 268.228 767.336 266.164 769.592C264.1 771.8 262.18 772.904 260.404 772.904C258.628 772.904 256.588 771.608 254.284 769.016C252.028 766.424 249.508 762.92 246.724 758.504C243.988 754.04 242.188 751.256 241.324 750.152C241.564 754.184 241.684 758.384 241.684 762.752C241.684 767.072 241.66 770.096 241.612 771.824C241.564 779.504 241.42 786.488 241.18 792.776C240.412 793.784 239.212 794.288 237.58 794.288C237.148 794.288 236.74 794.216 236.356 794.072C236.356 794.072 236.524 784.496 236.86 765.344ZM318.406 773.264L318.046 781.544C318.046 785.72 318.526 788.528 319.486 789.968C320.062 790.928 320.854 791.408 321.862 791.408C322.15 791.408 322.558 791.336 323.086 791.192C324.094 790.904 324.934 791.048 325.606 791.624C325.27 793.304 323.59 794.144 320.566 794.144C318.502 794.144 317.134 793.28 316.462 791.552C315.934 790.256 315.55 788.648 315.31 786.728C315.07 784.76 314.878 783.416 314.734 782.696C311.614 788.648 308.59 792.272 305.662 793.568C304.174 794.24 302.446 794.576 300.478 794.576C298.51 794.576 296.974 793.64 295.87 791.768C294.814 789.848 294.286 787.064 294.286 783.416C294.286 779.768 294.886 775.952 296.086 771.968C297.286 767.936 299.038 764.552 301.342 761.816C303.646 759.032 306.166 757.64 308.902 757.64C312.838 757.64 315.454 759.272 316.75 762.536C317.854 765.32 318.406 768.896 318.406 773.264ZM300.766 770.96C300.094 773.552 299.59 776.024 299.254 778.376C298.918 780.68 298.75 782.744 298.75 784.568C298.75 786.344 299.11 787.88 299.83 789.176C300.598 790.472 301.582 791.12 302.782 791.12C305.374 791.12 307.87 788.672 310.27 783.776C312.67 778.88 313.87 774.32 313.87 770.096C313.87 767.36 313.15 765.104 311.71 763.328C310.75 762.176 309.478 761.6 307.894 761.6C306.358 761.6 304.942 762.512 303.646 764.336C302.398 766.112 301.438 768.32 300.766 770.96ZM345.206 763.76C345.206 760.304 346.31 758.576 348.518 758.576C348.95 758.576 349.382 758.624 349.814 758.72C349.814 759.296 349.814 760.856 349.814 763.4C349.814 765.944 350.15 771.032 350.822 778.664C351.494 786.296 351.83 792.008 351.83 795.8C351.83 801.848 350.774 806.024 348.662 808.328C346.55 810.632 342.95 811.784 337.862 811.784C332.822 811.784 328.07 810.152 323.606 806.888C324.47 805.832 325.598 805.304 326.99 805.304C327.518 805.352 328.358 805.712 329.51 806.384C332.918 808.4 335.75 809.408 338.006 809.408C341.366 809.408 343.742 808.352 345.134 806.24C346.526 804.128 347.222 800.576 347.222 795.584C347.222 794.384 347.102 790.064 346.862 782.624C346.814 782.768 346.646 783.392 346.358 784.496C346.07 785.552 345.854 786.248 345.71 786.584C345.566 786.92 345.302 787.544 344.918 788.456C344.582 789.368 344.222 790.016 343.838 790.4C343.454 790.784 342.95 791.24 342.326 791.768C341.27 792.728 339.926 793.208 338.294 793.208C336.71 793.208 335.438 792.992 334.478 792.56C333.518 792.128 332.702 791.456 332.03 790.544C331.406 789.632 330.83 788.672 330.302 787.664C329.822 786.656 329.438 785.384 329.15 783.848C328.862 782.264 328.622 780.824 328.43 779.528C328.286 778.232 328.166 776.648 328.07 774.776C328.022 772.904 327.974 771.344 327.926 770.096C327.926 768.848 327.926 767.264 327.926 765.344V761.024C328.406 760.208 329.27 759.8 330.518 759.8C332.246 759.8 333.11 760.424 333.11 761.672L332.678 768.656C332.678 774.752 333.326 780.008 334.622 784.424C335.918 788.84 337.262 791.048 338.654 791.048C339.71 791.048 340.646 790.472 341.462 789.32C342.278 788.168 342.902 786.56 343.334 784.496C343.766 782.384 344.126 780.392 344.414 778.52C344.702 776.648 344.894 774.464 344.99 771.968C345.134 768.176 345.206 765.44 345.206 763.76ZM382.602 773.264L382.242 781.544C382.242 785.72 382.722 788.528 383.682 789.968C384.258 790.928 385.05 791.408 386.058 791.408C386.346 791.408 386.754 791.336 387.282 791.192C388.29 790.904 389.13 791.048 389.802 791.624C389.466 793.304 387.786 794.144 384.762 794.144C382.698 794.144 381.33 793.28 380.658 791.552C380.13 790.256 379.746 788.648 379.506 786.728C379.266 784.76 379.074 783.416 378.93 782.696C375.81 788.648 372.786 792.272 369.858 793.568C368.37 794.24 366.642 794.576 364.674 794.576C362.706 794.576 361.17 793.64 360.066 791.768C359.01 789.848 358.482 787.064 358.482 783.416C358.482 779.768 359.082 775.952 360.282 771.968C361.482 767.936 363.234 764.552 365.538 761.816C367.842 759.032 370.362 757.64 373.098 757.64C377.034 757.64 379.65 759.272 380.946 762.536C382.05 765.32 382.602 768.896 382.602 773.264ZM364.962 770.96C364.29 773.552 363.786 776.024 363.45 778.376C363.114 780.68 362.946 782.744 362.946 784.568C362.946 786.344 363.306 787.88 364.026 789.176C364.794 790.472 365.778 791.12 366.978 791.12C369.57 791.12 372.066 788.672 374.466 783.776C376.866 778.88 378.066 774.32 378.066 770.096C378.066 767.36 377.346 765.104 375.906 763.328C374.946 762.176 373.674 761.6 372.09 761.6C370.554 761.6 369.138 762.512 367.842 764.336C366.594 766.112 365.634 768.32 364.962 770.96ZM399.249 786.944L399.465 791.048C399.465 792.104 399.153 792.848 398.529 793.28C397.953 793.664 397.353 793.856 396.729 793.856C396.153 793.856 395.553 793.76 394.929 793.568C393.873 788 393.057 781.064 392.481 772.76C391.953 764.456 391.641 759.752 391.545 758.648C392.265 757.976 393.009 757.64 393.777 757.64C394.593 757.64 395.313 757.736 395.937 757.928C396.129 759.32 396.273 762.392 396.369 767.144C396.465 771.896 396.585 774.872 396.729 776.072C397.401 772.04 398.601 768.272 400.329 764.768C401.289 762.8 402.537 761.24 404.073 760.088C405.657 758.888 407.337 758.288 409.113 758.288C410.937 758.288 412.593 759.104 414.081 760.736C415.617 762.32 416.385 763.76 416.385 765.056C416.385 765.536 416.097 765.92 415.521 766.208C414.945 766.448 414.297 766.568 413.577 766.568C412.905 766.568 412.377 766.304 411.993 765.776C411.609 765.248 411.345 764.672 411.201 764.048C411.057 763.376 410.745 762.776 410.265 762.248C409.785 761.72 409.137 761.456 408.321 761.456C406.161 761.456 404.313 763.4 402.777 767.288C400.425 773.096 399.249 779.648 399.249 786.944ZM442.789 773.264L442.429 781.544C442.429 785.72 442.909 788.528 443.869 789.968C444.445 790.928 445.237 791.408 446.245 791.408C446.533 791.408 446.941 791.336 447.469 791.192C448.477 790.904 449.317 791.048 449.989 791.624C449.653 793.304 447.973 794.144 444.949 794.144C442.885 794.144 441.517 793.28 440.845 791.552C440.317 790.256 439.933 788.648 439.693 786.728C439.453 784.76 439.261 783.416 439.117 782.696C435.997 788.648 432.973 792.272 430.045 793.568C428.557 794.24 426.829 794.576 424.861 794.576C422.893 794.576 421.357 793.64 420.253 791.768C419.197 789.848 418.669 787.064 418.669 783.416C418.669 779.768 419.269 775.952 420.469 771.968C421.669 767.936 423.421 764.552 425.725 761.816C428.029 759.032 430.549 757.64 433.285 757.64C437.221 757.64 439.837 759.272 441.133 762.536C442.237 765.32 442.789 768.896 442.789 773.264ZM425.149 770.96C424.477 773.552 423.973 776.024 423.637 778.376C423.301 780.68 423.133 782.744 423.133 784.568C423.133 786.344 423.493 787.88 424.213 789.176C424.981 790.472 425.965 791.12 427.165 791.12C429.757 791.12 432.253 788.672 434.653 783.776C437.053 778.88 438.253 774.32 438.253 770.096C438.253 767.36 437.533 765.104 436.093 763.328C435.133 762.176 433.861 761.6 432.277 761.6C430.741 761.6 429.325 762.512 428.029 764.336C426.781 766.112 425.821 768.32 425.149 770.96ZM471.071 765.344C471.071 757.568 470.663 750.464 469.847 744.032C469.847 743.024 470.543 742.52 471.935 742.52C473.327 742.52 475.175 743.864 477.479 746.552C479.783 749.192 481.991 752.096 484.103 755.264C486.215 758.432 488.327 761.36 490.439 764.048C492.599 766.688 494.135 768.008 495.047 768.008C495.959 768.008 497.423 766.616 499.439 763.832C501.503 761 503.519 757.928 505.487 754.616C507.503 751.256 509.663 748.184 511.967 745.4C514.319 742.568 516.191 741.152 517.583 741.152C519.023 741.152 519.743 741.536 519.743 742.304C520.175 748.208 520.391 753.488 520.391 758.144C520.391 762.8 520.367 766.592 520.319 769.52C520.271 772.4 520.223 774.512 520.175 775.856C520.175 777.152 520.103 780.152 519.959 784.856C519.815 789.512 519.743 792.248 519.743 793.064C519.023 794.072 518.039 794.576 516.791 794.576C516.263 794.576 515.759 794.432 515.279 794.144C514.991 788.24 514.847 781.28 514.847 773.264C514.847 765.248 514.919 756.944 515.063 748.352C514.103 749.12 512.735 750.92 510.959 753.752C509.231 756.536 507.551 759.32 505.919 762.104C504.287 764.84 502.439 767.336 500.375 769.592C498.311 771.8 496.391 772.904 494.615 772.904C492.839 772.904 490.799 771.608 488.495 769.016C486.239 766.424 483.719 762.92 480.935 758.504C478.199 754.04 476.399 751.256 475.535 750.152C475.775 754.184 475.895 758.384 475.895 762.752C475.895 767.072 475.871 770.096 475.823 771.824C475.775 779.504 475.631 786.488 475.391 792.776C474.623 793.784 473.423 794.288 471.791 794.288C471.359 794.288 470.951 794.216 470.567 794.072C470.567 794.072 470.735 784.496 471.071 765.344ZM532.384 764.12C534.832 760.376 538.36 758.504 542.968 758.504C547.576 758.504 551.248 760.376 553.984 764.12C556.768 767.864 558.16 772.136 558.16 776.936C558.16 781.688 556.648 785.72 553.624 789.032C550.6 792.344 546.76 794 542.104 794C537.448 794 534.064 792.704 531.952 790.112C529.84 787.472 528.784 783.776 528.784 779.024C528.784 772.832 529.984 767.864 532.384 764.12ZM535.552 767.936C534.928 769.808 534.448 771.68 534.112 773.552C533.824 775.424 533.68 777.176 533.68 778.808C533.68 780.392 533.8 781.856 534.04 783.2C534.28 784.496 534.688 785.792 535.264 787.088C535.84 788.336 536.704 789.344 537.856 790.112C539.008 790.832 540.376 791.192 541.96 791.192C545.176 791.192 547.864 789.872 550.024 787.232C552.232 784.592 553.336 781.4 553.336 777.656C553.336 773.912 552.328 770.288 550.312 766.784C548.344 763.232 545.92 761.456 543.04 761.456C541.312 761.456 539.8 762.056 538.504 763.256C537.208 764.456 536.224 766.016 535.552 767.936ZM572.288 786.944L572.504 791.048C572.504 792.104 572.192 792.848 571.568 793.28C570.992 793.664 570.392 793.856 569.768 793.856C569.192 793.856 568.592 793.76 567.968 793.568C566.912 788 566.096 781.064 565.52 772.76C564.992 764.456 564.68 759.752 564.584 758.648C565.304 757.976 566.048 757.64 566.816 757.64C567.632 757.64 568.352 757.736 568.976 757.928C569.168 759.32 569.312 762.392 569.408 767.144C569.504 771.896 569.624 774.872 569.768 776.072C570.44 772.04 571.64 768.272 573.368 764.768C574.328 762.8 575.576 761.24 577.112 760.088C578.696 758.888 580.376 758.288 582.152 758.288C583.976 758.288 585.632 759.104 587.12 760.736C588.656 762.32 589.424 763.76 589.424 765.056C589.424 765.536 589.136 765.92 588.56 766.208C587.984 766.448 587.336 766.568 586.616 766.568C585.944 766.568 585.416 766.304 585.032 765.776C584.648 765.248 584.384 764.672 584.24 764.048C584.096 763.376 583.784 762.776 583.304 762.248C582.824 761.72 582.176 761.456 581.36 761.456C579.2 761.456 577.352 763.4 575.816 767.288C573.464 773.096 572.288 779.648 572.288 786.944ZM596.397 779.384C596.301 780.344 596.253 780.992 596.253 781.328C596.253 784.208 597.117 786.44 598.845 788.024C600.621 789.608 602.709 790.4 605.109 790.4C607.509 790.4 609.453 790.064 610.941 789.392C612.477 788.72 613.581 788 614.253 787.232C615.981 785.072 617.565 783.992 619.005 783.992C619.533 783.992 620.157 784.136 620.877 784.424C620.397 786.776 618.573 788.936 615.405 790.904C612.285 792.824 608.349 793.784 603.597 793.784C600.237 793.784 597.333 792.728 594.885 790.616C592.485 788.456 591.285 785.528 591.285 781.832C591.285 778.136 592.005 774.56 593.445 771.104C594.933 767.6 597.045 764.624 599.781 762.176C602.565 759.68 605.373 758.432 608.205 758.432C611.085 758.432 613.389 759.032 615.117 760.232C616.893 761.384 617.781 763.088 617.781 765.344C617.781 769.52 615.909 772.976 612.165 775.712C608.469 778.4 604.533 779.744 600.357 779.744C599.253 779.744 597.933 779.624 596.397 779.384ZM601.869 777.008C604.125 777.008 606.141 776.288 607.917 774.848C609.693 773.408 610.941 771.896 611.661 770.312C612.429 768.728 612.813 767.288 612.813 765.992C612.813 764.696 612.309 763.568 611.301 762.608C610.293 761.6 609.117 761.096 607.773 761.096C605.373 761.096 603.141 762.752 601.077 766.064C599.061 769.376 597.621 772.808 596.757 776.36C598.869 776.792 600.573 777.008 601.869 777.008ZM631.868 741.008C631.82 742.112 631.796 743.336 631.796 744.68C631.796 746.024 631.868 747.416 632.012 748.856C631.34 749.624 630.428 750.008 629.276 750.008C627.836 750.008 627.116 748.856 627.116 746.552C627.116 746.456 627.116 746.096 627.116 745.472C627.116 744.848 627.116 744.296 627.116 743.816C627.164 743.288 627.26 742.688 627.404 742.016C627.74 740.864 628.484 740.288 629.636 740.288C630.788 740.288 631.532 740.528 631.868 741.008ZM627.26 776.288C627.26 766.88 627.74 761.456 628.7 760.016C629.036 759.488 629.444 759.224 629.924 759.224C630.404 759.224 631.196 759.488 632.3 760.016C632.06 764.096 631.94 768.536 631.94 773.336C631.94 773.336 631.988 778.64 632.084 789.248C632.084 790.736 631.748 791.792 631.076 792.416C630.452 792.992 629.852 793.28 629.276 793.28C628.748 793.28 628.196 793.136 627.62 792.848C627.38 786.608 627.26 781.088 627.26 776.288ZM648.226 786.944L648.442 791.048C648.442 792.104 648.13 792.848 647.506 793.28C646.93 793.664 646.33 793.856 645.706 793.856C645.13 793.856 644.53 793.76 643.906 793.568C642.85 788 642.034 781.064 641.458 772.76C640.93 764.456 640.618 759.752 640.522 758.648C641.242 757.976 641.986 757.64 642.754 757.64C643.57 757.64 644.29 757.736 644.914 757.928C645.106 759.32 645.25 762.392 645.346 767.144C645.442 771.896 645.562 774.872 645.706 776.072C646.378 772.04 647.578 768.272 649.306 764.768C650.266 762.8 651.514 761.24 653.05 760.088C654.634 758.888 656.314 758.288 658.09 758.288C659.914 758.288 661.57 759.104 663.058 760.736C664.594 762.32 665.362 763.76 665.362 765.056C665.362 765.536 665.074 765.92 664.498 766.208C663.922 766.448 663.274 766.568 662.554 766.568C661.882 766.568 661.354 766.304 660.97 765.776C660.586 765.248 660.322 764.672 660.178 764.048C660.034 763.376 659.722 762.776 659.242 762.248C658.762 761.72 658.114 761.456 657.298 761.456C655.138 761.456 653.29 763.4 651.754 767.288C649.402 773.096 648.226 779.648 648.226 786.944ZM691.766 773.264L691.406 781.544C691.406 785.72 691.886 788.528 692.846 789.968C693.422 790.928 694.214 791.408 695.222 791.408C695.51 791.408 695.918 791.336 696.446 791.192C697.454 790.904 698.294 791.048 698.966 791.624C698.63 793.304 696.95 794.144 693.926 794.144C691.862 794.144 690.494 793.28 689.822 791.552C689.294 790.256 688.91 788.648 688.67 786.728C688.43 784.76 688.238 783.416 688.094 782.696C684.974 788.648 681.95 792.272 679.022 793.568C677.534 794.24 675.806 794.576 673.838 794.576C671.87 794.576 670.334 793.64 669.23 791.768C668.174 789.848 667.646 787.064 667.646 783.416C667.646 779.768 668.246 775.952 669.446 771.968C670.646 767.936 672.398 764.552 674.702 761.816C677.006 759.032 679.526 757.64 682.262 757.64C686.198 757.64 688.814 759.272 690.11 762.536C691.214 765.32 691.766 768.896 691.766 773.264ZM674.126 770.96C673.454 773.552 672.95 776.024 672.614 778.376C672.278 780.68 672.11 782.744 672.11 784.568C672.11 786.344 672.47 787.88 673.19 789.176C673.958 790.472 674.942 791.12 676.142 791.12C678.734 791.12 681.23 788.672 683.63 783.776C686.03 778.88 687.23 774.32 687.23 770.096C687.23 767.36 686.51 765.104 685.07 763.328C684.11 762.176 682.838 761.6 681.254 761.6C679.718 761.6 678.302 762.512 677.006 764.336C675.758 766.112 674.798 768.32 674.126 770.96ZM744.672 736.328C742.848 752.84 741.936 764.624 741.936 771.68C741.936 778.688 742.584 785.696 743.88 792.704C742.92 793.664 742.08 794.144 741.36 794.144C740.64 794.144 740.04 794.048 739.56 793.856C738.552 790.304 737.952 786.44 737.76 782.264C736.608 784.088 735.744 785.384 735.168 786.152C734.64 786.92 733.704 788.048 732.36 789.536C729.912 792.416 727.008 793.856 723.648 793.856C721.104 793.856 719.256 792.68 718.104 790.328C717 787.928 716.448 784.88 716.448 781.184C716.448 777.44 716.856 773.888 717.672 770.528C718.536 767.12 720 764.192 722.064 761.744C724.128 759.248 726.672 758 729.696 758C731.52 758 733.2 758.384 734.736 759.152C736.272 759.92 737.328 760.952 737.904 762.248C738 760.952 738.096 758.96 738.192 756.272C738.288 753.584 738.384 751.208 738.48 749.144C738.624 747.032 738.84 744.896 739.128 742.736C739.656 738.128 740.832 735.824 742.656 735.824C743.28 735.824 743.952 735.992 744.672 736.328ZM736.248 764.84C735.672 763.784 734.88 763.016 733.872 762.536C732.864 762.008 731.52 761.744 729.84 761.744C728.208 761.744 726.672 762.68 725.232 764.552C722.4 768.248 720.984 773.6 720.984 780.608C720.984 782.864 721.344 785.12 722.064 787.376C722.784 789.584 723.84 790.688 725.232 790.688C727.248 790.688 729.216 789.368 731.136 786.728C733.056 784.088 734.544 781.064 735.6 777.656C736.656 774.2 737.184 771.104 737.184 768.368C737.184 767.072 736.872 765.896 736.248 764.84ZM755.303 779.384C755.207 780.344 755.159 780.992 755.159 781.328C755.159 784.208 756.023 786.44 757.751 788.024C759.527 789.608 761.615 790.4 764.015 790.4C766.415 790.4 768.359 790.064 769.847 789.392C771.383 788.72 772.487 788 773.159 787.232C774.887 785.072 776.471 783.992 777.911 783.992C778.439 783.992 779.063 784.136 779.783 784.424C779.303 786.776 777.479 788.936 774.311 790.904C771.191 792.824 767.255 793.784 762.503 793.784C759.143 793.784 756.239 792.728 753.791 790.616C751.391 788.456 750.191 785.528 750.191 781.832C750.191 778.136 750.911 774.56 752.351 771.104C753.839 767.6 755.951 764.624 758.687 762.176C761.471 759.68 764.279 758.432 767.111 758.432C769.991 758.432 772.295 759.032 774.023 760.232C775.799 761.384 776.687 763.088 776.687 765.344C776.687 769.52 774.815 772.976 771.071 775.712C767.375 778.4 763.439 779.744 759.263 779.744C758.159 779.744 756.839 779.624 755.303 779.384ZM760.775 777.008C763.031 777.008 765.047 776.288 766.823 774.848C768.599 773.408 769.847 771.896 770.567 770.312C771.335 768.728 771.719 767.288 771.719 765.992C771.719 764.696 771.215 763.568 770.207 762.608C769.199 761.6 768.023 761.096 766.679 761.096C764.279 761.096 762.047 762.752 759.983 766.064C757.967 769.376 756.527 772.808 755.663 776.36C757.775 776.792 759.479 777.008 760.775 777.008ZM816.664 794.432L810.688 794.648C807.328 794.648 805.144 794.192 804.136 793.28C803.512 792.8 803.2 792.128 803.2 791.264C803.2 785.84 803.392 778.736 803.776 769.952C804.16 761.12 804.352 754.256 804.352 749.36C804.352 747.392 806.176 745.808 809.824 744.608C813.472 743.408 817.384 742.808 821.56 742.808C829.384 742.808 835.864 745.016 841 749.432C846.184 753.848 848.776 759.584 848.776 766.64C848.776 770.192 848.152 773.48 846.904 776.504C845.704 779.528 844.072 782.144 842.008 784.352C839.944 786.512 837.544 788.36 834.808 789.896C829.336 792.92 823.288 794.432 816.664 794.432ZM843.664 768.368C843.664 762.176 841.552 756.992 837.328 752.816C833.152 748.592 827.728 746.48 821.056 746.48C817.792 746.48 813.904 747.56 809.392 749.72C809.392 753.608 809.2 759.44 808.816 767.216C808.432 774.944 808.24 780.296 808.24 783.272C808.24 786.2 808.264 788.288 808.312 789.536C811 790.064 813.88 790.328 816.952 790.328C824.728 790.328 831.112 788.432 836.104 784.64C841.144 780.848 843.664 775.424 843.664 768.368ZM859.436 779.384C859.34 780.344 859.292 780.992 859.292 781.328C859.292 784.208 860.156 786.44 861.884 788.024C863.66 789.608 865.748 790.4 868.148 790.4C870.548 790.4 872.492 790.064 873.98 789.392C875.516 788.72 876.62 788 877.292 787.232C879.02 785.072 880.604 783.992 882.044 783.992C882.572 783.992 883.196 784.136 883.916 784.424C883.436 786.776 881.612 788.936 878.444 790.904C875.324 792.824 871.388 793.784 866.636 793.784C863.276 793.784 860.372 792.728 857.924 790.616C855.524 788.456 854.324 785.528 854.324 781.832C854.324 778.136 855.044 774.56 856.484 771.104C857.972 767.6 860.084 764.624 862.82 762.176C865.604 759.68 868.412 758.432 871.244 758.432C874.124 758.432 876.428 759.032 878.156 760.232C879.932 761.384 880.82 763.088 880.82 765.344C880.82 769.52 878.948 772.976 875.204 775.712C871.508 778.4 867.572 779.744 863.396 779.744C862.292 779.744 860.972 779.624 859.436 779.384ZM864.908 777.008C867.164 777.008 869.18 776.288 870.956 774.848C872.732 773.408 873.98 771.896 874.7 770.312C875.468 768.728 875.852 767.288 875.852 765.992C875.852 764.696 875.348 763.568 874.34 762.608C873.332 761.6 872.156 761.096 870.812 761.096C868.412 761.096 866.18 762.752 864.116 766.064C862.1 769.376 860.66 772.808 859.796 776.36C861.908 776.792 863.612 777.008 864.908 777.008ZM895.699 760.232C894.451 762.584 893.827 766.088 893.827 770.744C893.827 777.752 895.147 783.344 897.787 787.52C899.323 789.968 901.147 791.192 903.259 791.192C905.419 791.192 907.147 790.064 908.443 787.808C909.979 785.024 910.747 781.184 910.747 776.288C910.747 770.144 909.883 765.608 908.155 762.68C907.387 761.288 906.931 760.28 906.787 759.656C906.691 759.032 906.859 758.576 907.291 758.288C907.723 758 908.443 757.856 909.451 757.856C912.379 757.856 914.299 760.88 915.211 766.928C915.499 768.608 915.643 770.288 915.643 771.968C915.643 776.336 914.779 780.704 913.051 785.072C910.603 791.072 906.739 794.072 901.459 794.072C898.675 794.072 896.299 793.04 894.331 790.976C890.635 787.04 888.787 781.112 888.787 773.192C888.787 769.736 889.027 767.096 889.507 765.272C889.987 763.448 890.395 762.272 890.731 761.744C891.067 761.168 891.475 760.64 891.955 760.16C892.435 759.68 892.963 759.488 893.539 759.584C894.163 759.68 894.883 759.896 895.699 760.232ZM940.843 765.2C940.411 764.096 939.595 763.232 938.395 762.608C937.195 761.984 935.707 761.672 933.931 761.672C932.155 761.672 930.475 762.2 928.891 763.256C927.355 764.312 926.587 765.728 926.587 767.504C926.587 769.28 927.307 770.696 928.747 771.752C930.235 772.76 932.011 773.528 934.075 774.056C936.187 774.584 938.299 775.16 940.411 775.784C942.523 776.36 944.299 777.344 945.739 778.736C947.227 780.08 947.971 781.856 947.971 784.064C947.971 787.28 946.627 789.728 943.939 791.408C941.299 793.088 938.107 793.928 934.363 793.928C932.155 793.928 929.251 793.328 925.651 792.128C922.099 790.928 920.323 789.488 920.323 787.808C920.323 786.56 921.379 785.936 923.491 785.936C924.115 785.936 924.931 786.32 925.939 787.088C929.011 789.344 932.155 790.472 935.371 790.472C937.099 790.472 938.587 790.184 939.835 789.608C942.139 788.504 943.291 786.728 943.291 784.28C943.291 782.792 942.547 781.592 941.059 780.68C939.619 779.768 937.843 779.048 935.731 778.52C933.667 777.992 931.579 777.416 929.467 776.792C927.355 776.168 925.555 775.136 924.067 773.696C922.627 772.208 921.907 770.336 921.907 768.08C921.907 765.152 923.227 762.776 925.867 760.952C928.507 759.128 931.771 758.216 935.659 758.216C938.299 758.216 940.675 758.912 942.787 760.304C944.947 761.648 946.027 763.616 946.027 766.208C946.027 767.936 945.043 768.8 943.075 768.8C942.259 768.8 941.707 768.656 941.419 768.368C941.179 768.08 941.035 767.576 940.987 766.856C940.987 766.088 940.939 765.536 940.843 765.2Z" fill="black"/>
<path d="M65 831L965 831" stroke="black" stroke-width="1.3"/>
<path d="M320.296 865.96C321.96 867.24 323.288 868.92 324.28 871C325.304 873.048 325.816 875.448 325.816 878.2C325.816 880.952 325.256 883.528 324.136 885.928C323.016 888.328 321.56 890.232 319.768 891.64C316.088 894.52 312.008 895.96 307.528 895.96C303.08 895.96 299.272 894.52 296.104 891.64C292.936 888.728 291.352 884.76 291.352 879.736C291.352 876.856 291.816 874.264 292.744 871.96C293.704 869.656 294.984 867.8 296.584 866.392C299.912 863.448 303.848 861.976 308.392 861.976C312.872 861.976 316.84 863.304 320.296 865.96ZM294.52 879.832C294.52 883.96 295.688 887.256 298.024 889.72C300.392 892.184 303.528 893.416 307.432 893.416C311.944 893.416 315.56 892.04 318.28 889.288C321.032 886.504 322.408 883 322.408 878.776C322.408 874.52 321.032 871.128 318.28 868.6C315.528 866.072 312.184 864.808 308.248 864.808C304.312 864.808 301.032 866.104 298.408 868.696C295.816 871.256 294.52 874.968 294.52 879.832ZM331.021 874.888C329.581 874.888 328.605 874.536 328.093 873.832C328.093 873.32 328.301 872.92 328.717 872.632C329.165 872.344 329.645 872.168 330.157 872.104C330.669 872.008 331.501 871.928 332.653 871.864C332.749 871 332.797 869.896 332.797 868.552C332.829 867.176 332.861 866.008 332.893 865.048C332.989 862.52 333.373 860.968 334.045 860.392C334.333 860.136 334.637 860.008 334.957 860.008C335.309 860.008 335.613 860.04 335.869 860.104C335.965 862.408 336.013 863.8 336.013 864.28L335.725 871.48C335.789 871.512 335.965 871.528 336.253 871.528L339.709 871.384C342.205 871.384 343.453 871.768 343.453 872.536C343.453 873.624 343.005 874.264 342.109 874.456C341.693 874.552 341.197 874.6 340.621 874.6C340.077 874.6 339.357 874.536 338.461 874.408C337.597 874.248 336.973 874.168 336.589 874.168C336.205 874.168 335.949 874.184 335.821 874.216C335.725 875.144 335.677 876.072 335.677 877C335.677 877.896 335.693 879.032 335.725 880.408C335.789 881.752 335.917 883.368 336.109 885.256C336.333 887.144 336.797 888.776 337.501 890.152C338.205 891.496 339.101 892.168 340.189 892.168C340.733 892.168 341.373 891.96 342.109 891.544C342.845 891.096 343.405 890.872 343.789 890.872C344.205 890.872 344.557 890.968 344.845 891.16C345.165 891.32 345.325 891.512 345.325 891.736C345.325 892.408 344.637 893.064 343.261 893.704C341.917 894.312 340.765 894.616 339.805 894.616C336.285 894.616 334.093 891.288 333.229 884.632C332.973 882.712 332.781 879.416 332.653 874.744C332.141 874.84 331.597 874.888 331.021 874.888ZM349.808 875.08C351.44 872.584 353.792 871.336 356.864 871.336C359.936 871.336 362.384 872.584 364.208 875.08C366.064 877.576 366.992 880.424 366.992 883.624C366.992 886.792 365.984 889.48 363.968 891.688C361.952 893.896 359.392 895 356.288 895C353.184 895 350.928 894.136 349.52 892.408C348.112 890.648 347.408 888.184 347.408 885.016C347.408 880.888 348.208 877.576 349.808 875.08ZM351.92 877.624C351.504 878.872 351.184 880.12 350.96 881.368C350.768 882.616 350.672 883.784 350.672 884.872C350.672 885.928 350.752 886.904 350.912 887.8C351.072 888.664 351.344 889.528 351.728 890.392C352.112 891.224 352.688 891.896 353.456 892.408C354.224 892.888 355.136 893.128 356.192 893.128C358.336 893.128 360.128 892.248 361.568 890.488C363.04 888.728 363.776 886.6 363.776 884.104C363.776 881.608 363.104 879.192 361.76 876.856C360.448 874.488 358.832 873.304 356.912 873.304C355.76 873.304 354.752 873.704 353.888 874.504C353.024 875.304 352.368 876.344 351.92 877.624ZM376.411 890.296L376.555 893.032C376.555 893.736 376.347 894.232 375.931 894.52C375.547 894.776 375.147 894.904 374.731 894.904C374.347 894.904 373.947 894.84 373.531 894.712C372.827 891 372.283 886.376 371.899 880.84C371.547 875.304 371.339 872.168 371.275 871.432C371.755 870.984 372.251 870.76 372.763 870.76C373.307 870.76 373.787 870.824 374.203 870.952C374.331 871.88 374.427 873.928 374.491 877.096C374.555 880.264 374.635 882.248 374.731 883.048C375.179 880.36 375.979 877.848 377.131 875.512C377.771 874.2 378.603 873.16 379.627 872.392C380.683 871.592 381.803 871.192 382.987 871.192C384.203 871.192 385.307 871.736 386.299 872.824C387.323 873.88 387.835 874.84 387.835 875.704C387.835 876.024 387.643 876.28 387.259 876.472C386.875 876.632 386.443 876.712 385.963 876.712C385.515 876.712 385.163 876.536 384.907 876.184C384.651 875.832 384.475 875.448 384.379 875.032C384.283 874.584 384.075 874.184 383.755 873.832C383.435 873.48 383.003 873.304 382.459 873.304C381.019 873.304 379.787 874.6 378.763 877.192C377.195 881.064 376.411 885.432 376.411 890.296ZM395.536 890.296L395.68 893.032C395.68 893.736 395.472 894.232 395.056 894.52C394.672 894.776 394.272 894.904 393.856 894.904C393.472 894.904 393.072 894.84 392.656 894.712C391.952 891 391.408 886.376 391.024 880.84C390.672 875.304 390.464 872.168 390.4 871.432C390.88 870.984 391.376 870.76 391.888 870.76C392.432 870.76 392.912 870.824 393.328 870.952C393.456 871.88 393.552 873.928 393.616 877.096C393.68 880.264 393.76 882.248 393.856 883.048C394.304 880.36 395.104 877.848 396.256 875.512C396.896 874.2 397.728 873.16 398.752 872.392C399.808 871.592 400.928 871.192 402.112 871.192C403.328 871.192 404.432 871.736 405.424 872.824C406.448 873.88 406.96 874.84 406.96 875.704C406.96 876.024 406.768 876.28 406.384 876.472C406 876.632 405.568 876.712 405.088 876.712C404.64 876.712 404.288 876.536 404.032 876.184C403.776 875.832 403.6 875.448 403.504 875.032C403.408 874.584 403.2 874.184 402.88 873.832C402.56 873.48 402.128 873.304 401.584 873.304C400.144 873.304 398.912 874.6 397.888 877.192C396.32 881.064 395.536 885.432 395.536 890.296ZM413.365 859.672C413.333 860.408 413.317 861.224 413.317 862.12C413.317 863.016 413.365 863.944 413.461 864.904C413.013 865.416 412.405 865.672 411.637 865.672C410.677 865.672 410.197 864.904 410.197 863.368C410.197 863.304 410.197 863.064 410.197 862.648C410.197 862.232 410.197 861.864 410.197 861.544C410.229 861.192 410.293 860.792 410.389 860.344C410.613 859.576 411.109 859.192 411.877 859.192C412.645 859.192 413.141 859.352 413.365 859.672ZM410.293 883.192C410.293 876.92 410.613 873.304 411.253 872.344C411.477 871.992 411.749 871.816 412.069 871.816C412.389 871.816 412.917 871.992 413.653 872.344C413.493 875.064 413.413 878.024 413.413 881.224C413.413 881.224 413.445 884.76 413.509 891.832C413.509 892.824 413.285 893.528 412.837 893.944C412.421 894.328 412.021 894.52 411.637 894.52C411.285 894.52 410.917 894.424 410.533 894.232C410.373 890.072 410.293 886.392 410.293 883.192ZM439.294 893.656C438.718 894.264 438.062 894.568 437.326 894.568C435.95 894.568 434.926 893.832 434.254 892.36C433.582 890.888 433.182 889.096 433.054 886.984C432.958 884.872 432.894 882.76 432.862 880.648C432.83 878.536 432.654 876.744 432.334 875.272C432.046 873.8 431.486 873.064 430.654 873.064C429.534 873.064 428.574 874.072 427.774 876.088C427.006 878.104 426.462 880.344 426.142 882.808C425.246 889.688 424.382 893.544 423.55 894.376C422.974 894.664 422.478 894.808 422.062 894.808C421.646 894.808 421.294 894.76 421.006 894.664C420.334 891.72 419.902 886.648 419.71 879.448C419.646 875.864 419.582 873.544 419.518 872.488C420.19 872.04 420.766 871.816 421.246 871.816C421.726 871.816 422.11 871.864 422.398 871.96C422.558 873.336 422.638 876.152 422.638 880.408C422.67 884.664 422.702 887.112 422.734 887.752C422.894 887.08 423.086 885.992 423.31 884.488C423.566 882.984 423.79 881.752 423.982 880.792C424.174 879.8 424.478 878.648 424.894 877.336C425.31 876.024 425.774 874.984 426.286 874.216C426.798 873.416 427.502 872.744 428.398 872.2C429.294 871.624 430.302 871.336 431.422 871.336C432.926 871.336 434.014 872.024 434.686 873.4C435.39 874.744 435.774 876.424 435.838 878.44C435.902 880.456 435.934 882.504 435.934 884.584C435.966 886.664 436.222 888.568 436.702 890.296C437.214 892.024 438.078 893.144 439.294 893.656ZM444.027 875.08C445.659 872.584 448.011 871.336 451.083 871.336C454.155 871.336 456.603 872.584 458.427 875.08C460.283 877.576 461.211 880.424 461.211 883.624C461.211 886.792 460.203 889.48 458.187 891.688C456.171 893.896 453.611 895 450.507 895C447.403 895 445.147 894.136 443.739 892.408C442.331 890.648 441.627 888.184 441.627 885.016C441.627 880.888 442.427 877.576 444.027 875.08ZM446.139 877.624C445.723 878.872 445.403 880.12 445.179 881.368C444.987 882.616 444.891 883.784 444.891 884.872C444.891 885.928 444.971 886.904 445.131 887.8C445.291 888.664 445.563 889.528 445.947 890.392C446.331 891.224 446.907 891.896 447.675 892.408C448.443 892.888 449.355 893.128 450.411 893.128C452.555 893.128 454.347 892.248 455.787 890.488C457.259 888.728 457.995 886.6 457.995 884.104C457.995 881.608 457.323 879.192 455.979 876.856C454.667 874.488 453.051 873.304 451.131 873.304C449.979 873.304 448.971 873.704 448.107 874.504C447.243 875.304 446.587 876.344 446.139 877.624ZM467.51 866.296C467.51 863.128 467.078 861 466.214 859.912C466.63 859.304 467.35 859 468.374 859C468.566 859 468.774 859.016 468.998 859.048C469.798 859.848 470.198 862.168 470.198 866.008C470.198 868.088 470.102 870.504 469.91 873.256C469.526 878.056 469.334 881.576 469.334 883.816C469.334 889.864 470.502 892.888 472.838 892.888C472.838 892.888 473.43 892.776 474.614 892.552C474.902 892.552 475.142 892.68 475.334 892.936C475.238 894.088 474.294 894.664 472.502 894.664C470.742 894.664 469.382 894.136 468.422 893.08C467.462 891.992 466.854 890.648 466.598 889.048C466.374 887.416 466.262 886.072 466.262 885.016C466.262 883.96 466.278 882.808 466.31 881.56C466.342 880.28 466.486 878.456 466.742 876.088C467.254 871.288 467.51 868.024 467.51 866.296ZM492.531 881.176L492.291 886.696C492.291 889.48 492.611 891.352 493.251 892.312C493.635 892.952 494.163 893.272 494.835 893.272C495.027 893.272 495.299 893.224 495.651 893.128C496.323 892.936 496.883 893.032 497.331 893.416C497.107 894.536 495.987 895.096 493.971 895.096C492.595 895.096 491.683 894.52 491.235 893.368C490.883 892.504 490.627 891.432 490.467 890.152C490.307 888.84 490.179 887.944 490.083 887.464C488.003 891.432 485.987 893.848 484.035 894.712C483.043 895.16 481.891 895.384 480.579 895.384C479.267 895.384 478.243 894.76 477.507 893.512C476.803 892.232 476.451 890.376 476.451 887.944C476.451 885.512 476.851 882.968 477.651 880.312C478.451 877.624 479.619 875.368 481.155 873.544C482.691 871.688 484.371 870.76 486.195 870.76C488.819 870.76 490.563 871.848 491.427 874.024C492.163 875.88 492.531 878.264 492.531 881.176ZM480.771 879.64C480.323 881.368 479.987 883.016 479.763 884.584C479.539 886.12 479.427 887.496 479.427 888.712C479.427 889.896 479.667 890.92 480.147 891.784C480.659 892.648 481.315 893.08 482.115 893.08C483.843 893.08 485.507 891.448 487.107 888.184C488.707 884.92 489.507 881.88 489.507 879.064C489.507 877.24 489.027 875.736 488.067 874.552C487.427 873.784 486.579 873.4 485.523 873.4C484.499 873.4 483.555 874.008 482.691 875.224C481.859 876.408 481.219 877.88 480.771 879.64ZM503.63 890.296L503.774 893.032C503.774 893.736 503.566 894.232 503.15 894.52C502.766 894.776 502.366 894.904 501.95 894.904C501.566 894.904 501.166 894.84 500.75 894.712C500.046 891 499.502 886.376 499.118 880.84C498.766 875.304 498.558 872.168 498.494 871.432C498.974 870.984 499.47 870.76 499.982 870.76C500.526 870.76 501.006 870.824 501.422 870.952C501.55 871.88 501.646 873.928 501.71 877.096C501.774 880.264 501.854 882.248 501.95 883.048C502.398 880.36 503.198 877.848 504.35 875.512C504.99 874.2 505.822 873.16 506.846 872.392C507.902 871.592 509.022 871.192 510.206 871.192C511.422 871.192 512.526 871.736 513.518 872.824C514.542 873.88 515.054 874.84 515.054 875.704C515.054 876.024 514.862 876.28 514.478 876.472C514.094 876.632 513.662 876.712 513.182 876.712C512.734 876.712 512.382 876.536 512.126 876.184C511.87 875.832 511.694 875.448 511.598 875.032C511.502 874.584 511.294 874.184 510.974 873.832C510.654 873.48 510.222 873.304 509.678 873.304C508.238 873.304 507.006 874.6 505.982 877.192C504.414 881.064 503.63 885.432 503.63 890.296ZM521.459 859.672C521.427 860.408 521.411 861.224 521.411 862.12C521.411 863.016 521.459 863.944 521.555 864.904C521.107 865.416 520.499 865.672 519.731 865.672C518.771 865.672 518.291 864.904 518.291 863.368C518.291 863.304 518.291 863.064 518.291 862.648C518.291 862.232 518.291 861.864 518.291 861.544C518.323 861.192 518.387 860.792 518.483 860.344C518.707 859.576 519.203 859.192 519.971 859.192C520.739 859.192 521.235 859.352 521.459 859.672ZM518.387 883.192C518.387 876.92 518.707 873.304 519.347 872.344C519.571 871.992 519.843 871.816 520.163 871.816C520.483 871.816 521.011 871.992 521.747 872.344C521.587 875.064 521.507 878.024 521.507 881.224C521.507 881.224 521.539 884.76 521.603 891.832C521.603 892.824 521.379 893.528 520.931 893.944C520.515 894.328 520.115 894.52 519.731 894.52C519.379 894.52 519.011 894.424 518.627 894.232C518.467 890.072 518.387 886.392 518.387 883.192ZM547.388 893.656C546.812 894.264 546.156 894.568 545.42 894.568C544.044 894.568 543.02 893.832 542.348 892.36C541.676 890.888 541.276 889.096 541.148 886.984C541.052 884.872 540.988 882.76 540.956 880.648C540.924 878.536 540.748 876.744 540.428 875.272C540.14 873.8 539.58 873.064 538.748 873.064C537.628 873.064 536.668 874.072 535.868 876.088C535.1 878.104 534.556 880.344 534.236 882.808C533.34 889.688 532.476 893.544 531.644 894.376C531.068 894.664 530.572 894.808 530.156 894.808C529.74 894.808 529.388 894.76 529.1 894.664C528.428 891.72 527.996 886.648 527.804 879.448C527.74 875.864 527.676 873.544 527.612 872.488C528.284 872.04 528.86 871.816 529.34 871.816C529.82 871.816 530.204 871.864 530.492 871.96C530.652 873.336 530.732 876.152 530.732 880.408C530.764 884.664 530.796 887.112 530.828 887.752C530.988 887.08 531.18 885.992 531.404 884.488C531.66 882.984 531.884 881.752 532.076 880.792C532.268 879.8 532.572 878.648 532.988 877.336C533.404 876.024 533.868 874.984 534.38 874.216C534.892 873.416 535.596 872.744 536.492 872.2C537.388 871.624 538.396 871.336 539.516 871.336C541.02 871.336 542.108 872.024 542.78 873.4C543.484 874.744 543.868 876.424 543.932 878.44C543.996 880.456 544.028 882.504 544.028 884.584C544.06 886.664 544.316 888.568 544.796 890.296C545.308 892.024 546.172 893.144 547.388 893.656ZM558.888 871C561.8 871 563.816 872.184 564.936 874.552C565.544 875.8 566.04 876.984 566.424 878.104C566.808 879.224 567.064 880.76 567.192 882.712C567.384 885.688 567.48 889.08 567.48 892.888C567.48 896.664 566.568 899.672 564.744 901.912C562.952 904.184 560.312 905.32 556.824 905.32C553.368 905.32 550.488 904.2 548.184 901.96C548.824 901.32 549.512 901 550.248 901C551.016 901 552.056 901.32 553.368 901.96C554.712 902.632 556.136 902.968 557.64 902.968C559.144 902.968 560.392 902.616 561.384 901.912C562.376 901.24 563.112 900.28 563.592 899.032C564.392 896.824 564.792 894.104 564.792 890.872C564.792 890.392 564.744 888.616 564.648 885.544C563.784 888.168 562.552 890.344 560.952 892.072C559.352 893.768 557.544 894.616 555.528 894.616C553.512 894.616 552.024 893.72 551.064 891.928C550.136 890.104 549.672 888.04 549.672 885.736C549.672 883.432 549.992 881.192 550.632 879.016C551.272 876.808 552.312 874.92 553.752 873.352C555.192 871.784 556.904 871 558.888 871ZM553.8 878.296C553.384 879.704 553.08 881.032 552.888 882.28C552.696 883.528 552.6 884.792 552.6 886.072C552.6 887.32 552.856 888.712 553.368 890.248C553.912 891.784 554.696 892.552 555.72 892.552C557.736 892.552 559.528 891.048 561.096 888.04C562.664 885 563.448 881.944 563.448 878.872C563.448 877.816 562.952 876.632 561.96 875.32C561 873.976 559.784 873.304 558.312 873.304C557.288 873.304 556.376 873.784 555.576 874.744C554.808 875.704 554.216 876.888 553.8 878.296ZM574.48 875.08C576.112 872.584 578.464 871.336 581.536 871.336C584.608 871.336 587.056 872.584 588.88 875.08C590.736 877.576 591.664 880.424 591.664 883.624C591.664 886.792 590.656 889.48 588.64 891.688C586.624 893.896 584.064 895 580.96 895C577.856 895 575.6 894.136 574.192 892.408C572.784 890.648 572.08 888.184 572.08 885.016C572.08 880.888 572.88 877.576 574.48 875.08ZM576.592 877.624C576.176 878.872 575.856 880.12 575.632 881.368C575.44 882.616 575.344 883.784 575.344 884.872C575.344 885.928 575.424 886.904 575.584 887.8C575.744 888.664 576.016 889.528 576.4 890.392C576.784 891.224 577.36 891.896 578.128 892.408C578.896 892.888 579.808 893.128 580.864 893.128C583.008 893.128 584.8 892.248 586.24 890.488C587.712 888.728 588.448 886.6 588.448 884.104C588.448 881.608 587.776 879.192 586.432 876.856C585.12 874.488 583.504 873.304 581.584 873.304C580.432 873.304 579.424 873.704 578.56 874.504C577.696 875.304 577.04 876.344 576.592 877.624ZM597.963 866.296C597.963 863.128 597.531 861 596.667 859.912C597.083 859.304 597.803 859 598.827 859C599.019 859 599.227 859.016 599.451 859.048C600.251 859.848 600.651 862.168 600.651 866.008C600.651 868.088 600.555 870.504 600.363 873.256C599.979 878.056 599.787 881.576 599.787 883.816C599.787 889.864 600.955 892.888 603.291 892.888C603.291 892.888 603.883 892.776 605.067 892.552C605.355 892.552 605.595 892.68 605.787 892.936C605.691 894.088 604.747 894.664 602.955 894.664C601.195 894.664 599.835 894.136 598.875 893.08C597.915 891.992 597.307 890.648 597.051 889.048C596.827 887.416 596.715 886.072 596.715 885.016C596.715 883.96 596.731 882.808 596.763 881.56C596.795 880.28 596.939 878.456 597.195 876.088C597.707 871.288 597.963 868.024 597.963 866.296ZM609.448 875.08C611.08 872.584 613.432 871.336 616.504 871.336C619.576 871.336 622.024 872.584 623.848 875.08C625.704 877.576 626.632 880.424 626.632 883.624C626.632 886.792 625.624 889.48 623.608 891.688C621.592 893.896 619.032 895 615.928 895C612.824 895 610.568 894.136 609.16 892.408C607.752 890.648 607.048 888.184 607.048 885.016C607.048 880.888 607.848 877.576 609.448 875.08ZM611.56 877.624C611.144 878.872 610.824 880.12 610.6 881.368C610.408 882.616 610.312 883.784 610.312 884.872C610.312 885.928 610.392 886.904 610.552 887.8C610.712 888.664 610.984 889.528 611.368 890.392C611.752 891.224 612.328 891.896 613.096 892.408C613.864 892.888 614.776 893.128 615.832 893.128C617.976 893.128 619.768 892.248 621.208 890.488C622.68 888.728 623.416 886.6 623.416 884.104C623.416 881.608 622.744 879.192 621.4 876.856C620.088 874.488 618.472 873.304 616.552 873.304C615.4 873.304 614.392 873.704 613.528 874.504C612.664 875.304 612.008 876.344 611.56 877.624ZM639.748 871C642.66 871 644.676 872.184 645.796 874.552C646.404 875.8 646.9 876.984 647.284 878.104C647.668 879.224 647.924 880.76 648.052 882.712C648.244 885.688 648.34 889.08 648.34 892.888C648.34 896.664 647.428 899.672 645.604 901.912C643.812 904.184 641.172 905.32 637.684 905.32C634.228 905.32 631.348 904.2 629.044 901.96C629.684 901.32 630.372 901 631.108 901C631.876 901 632.916 901.32 634.228 901.96C635.572 902.632 636.996 902.968 638.5 902.968C640.004 902.968 641.252 902.616 642.244 901.912C643.236 901.24 643.972 900.28 644.452 899.032C645.252 896.824 645.652 894.104 645.652 890.872C645.652 890.392 645.604 888.616 645.508 885.544C644.644 888.168 643.412 890.344 641.812 892.072C640.212 893.768 638.404 894.616 636.388 894.616C634.372 894.616 632.884 893.72 631.924 891.928C630.996 890.104 630.532 888.04 630.532 885.736C630.532 883.432 630.852 881.192 631.492 879.016C632.132 876.808 633.172 874.92 634.612 873.352C636.052 871.784 637.764 871 639.748 871ZM634.66 878.296C634.244 879.704 633.94 881.032 633.748 882.28C633.556 883.528 633.46 884.792 633.46 886.072C633.46 887.32 633.716 888.712 634.228 890.248C634.772 891.784 635.556 892.552 636.58 892.552C638.596 892.552 640.388 891.048 641.956 888.04C643.524 885 644.308 881.944 644.308 878.872C644.308 877.816 643.812 876.632 642.82 875.32C641.86 873.976 640.644 873.304 639.172 873.304C638.148 873.304 637.236 873.784 636.436 874.744C635.668 875.704 635.076 876.888 634.66 878.296ZM657.115 859.672C657.083 860.408 657.067 861.224 657.067 862.12C657.067 863.016 657.115 863.944 657.211 864.904C656.763 865.416 656.155 865.672 655.387 865.672C654.427 865.672 653.947 864.904 653.947 863.368C653.947 863.304 653.947 863.064 653.947 862.648C653.947 862.232 653.947 861.864 653.947 861.544C653.979 861.192 654.043 860.792 654.139 860.344C654.363 859.576 654.859 859.192 655.627 859.192C656.395 859.192 656.891 859.352 657.115 859.672ZM654.043 883.192C654.043 876.92 654.363 873.304 655.003 872.344C655.227 871.992 655.499 871.816 655.819 871.816C656.139 871.816 656.667 871.992 657.403 872.344C657.243 875.064 657.163 878.024 657.163 881.224C657.163 881.224 657.195 884.76 657.259 891.832C657.259 892.824 657.035 893.528 656.587 893.944C656.171 894.328 655.771 894.52 655.387 894.52C655.035 894.52 654.667 894.424 654.283 894.232C654.123 890.072 654.043 886.392 654.043 883.192ZM675.364 875.8C675.076 875.064 674.532 874.488 673.732 874.072C672.932 873.656 671.94 873.448 670.756 873.448C669.572 873.448 668.452 873.8 667.396 874.504C666.372 875.208 665.86 876.152 665.86 877.336C665.86 878.52 666.34 879.464 667.3 880.168C668.292 880.84 669.476 881.352 670.852 881.704C672.26 882.056 673.668 882.44 675.076 882.856C676.484 883.24 677.668 883.896 678.628 884.824C679.62 885.72 680.116 886.904 680.116 888.376C680.116 890.52 679.22 892.152 677.428 893.272C675.668 894.392 673.54 894.952 671.044 894.952C669.572 894.952 667.636 894.552 665.236 893.752C662.868 892.952 661.684 891.992 661.684 890.872C661.684 890.04 662.388 889.624 663.796 889.624C664.212 889.624 664.756 889.88 665.428 890.392C667.476 891.896 669.572 892.648 671.716 892.648C672.868 892.648 673.86 892.456 674.692 892.072C676.228 891.336 676.996 890.152 676.996 888.52C676.996 887.528 676.5 886.728 675.508 886.12C674.548 885.512 673.364 885.032 671.956 884.68C670.58 884.328 669.188 883.944 667.78 883.528C666.372 883.112 665.172 882.424 664.18 881.464C663.22 880.472 662.74 879.224 662.74 877.72C662.74 875.768 663.62 874.184 665.38 872.968C667.14 871.752 669.316 871.144 671.908 871.144C673.668 871.144 675.252 871.608 676.66 872.536C678.1 873.432 678.82 874.744 678.82 876.472C678.82 877.624 678.164 878.2 676.852 878.2C676.308 878.2 675.94 878.104 675.748 877.912C675.588 877.72 675.492 877.384 675.46 876.904C675.46 876.392 675.428 876.024 675.364 875.8ZM684.271 874.888C682.831 874.888 681.855 874.536 681.343 873.832C681.343 873.32 681.551 872.92 681.967 872.632C682.415 872.344 682.895 872.168 683.407 872.104C683.919 872.008 684.751 871.928 685.903 871.864C685.999 871 686.047 869.896 686.047 868.552C686.079 867.176 686.111 866.008 686.143 865.048C686.239 862.52 686.623 860.968 687.295 860.392C687.583 860.136 687.887 860.008 688.207 860.008C688.559 860.008 688.863 860.04 689.119 860.104C689.215 862.408 689.263 863.8 689.263 864.28L688.975 871.48C689.039 871.512 689.215 871.528 689.503 871.528L692.959 871.384C695.455 871.384 696.703 871.768 696.703 872.536C696.703 873.624 696.255 874.264 695.359 874.456C694.943 874.552 694.447 874.6 693.871 874.6C693.327 874.6 692.607 874.536 691.711 874.408C690.847 874.248 690.223 874.168 689.839 874.168C689.455 874.168 689.199 874.184 689.071 874.216C688.975 875.144 688.927 876.072 688.927 877C688.927 877.896 688.943 879.032 688.975 880.408C689.039 881.752 689.167 883.368 689.359 885.256C689.583 887.144 690.047 888.776 690.751 890.152C691.455 891.496 692.351 892.168 693.439 892.168C693.983 892.168 694.623 891.96 695.359 891.544C696.095 891.096 696.655 890.872 697.039 890.872C697.455 890.872 697.807 890.968 698.095 891.16C698.415 891.32 698.575 891.512 698.575 891.736C698.575 892.408 697.887 893.064 696.511 893.704C695.167 894.312 694.015 894.616 693.055 894.616C689.535 894.616 687.343 891.288 686.479 884.632C686.223 882.712 686.031 879.416 685.903 874.744C685.391 874.84 684.847 874.888 684.271 874.888ZM716.594 881.176L716.354 886.696C716.354 889.48 716.674 891.352 717.314 892.312C717.698 892.952 718.226 893.272 718.898 893.272C719.09 893.272 719.362 893.224 719.714 893.128C720.386 892.936 720.946 893.032 721.394 893.416C721.17 894.536 720.05 895.096 718.034 895.096C716.658 895.096 715.746 894.52 715.298 893.368C714.946 892.504 714.69 891.432 714.53 890.152C714.37 888.84 714.242 887.944 714.146 887.464C712.066 891.432 710.05 893.848 708.098 894.712C707.106 895.16 705.954 895.384 704.642 895.384C703.33 895.384 702.306 894.76 701.57 893.512C700.866 892.232 700.514 890.376 700.514 887.944C700.514 885.512 700.914 882.968 701.714 880.312C702.514 877.624 703.682 875.368 705.218 873.544C706.754 871.688 708.434 870.76 710.258 870.76C712.882 870.76 714.626 871.848 715.49 874.024C716.226 875.88 716.594 878.264 716.594 881.176ZM704.834 879.64C704.386 881.368 704.05 883.016 703.826 884.584C703.602 886.12 703.49 887.496 703.49 888.712C703.49 889.896 703.73 890.92 704.21 891.784C704.722 892.648 705.378 893.08 706.178 893.08C707.906 893.08 709.57 891.448 711.17 888.184C712.77 884.92 713.57 881.88 713.57 879.064C713.57 877.24 713.09 875.736 712.13 874.552C711.49 873.784 710.642 873.4 709.586 873.4C708.562 873.4 707.618 874.008 706.754 875.224C705.922 876.408 705.282 877.88 704.834 879.64Z" fill="black"/>
<g filter="url(#filter0_d_346_196)">
<path d="M556.112 490.371L653.247 402L784.708 407.112L687.573 494.753L556.112 490.371Z" fill="#36AE82"/>
<path d="M683.921 510.09L551 505.708L598.472 654.697L736.506 662L683.921 510.09Z" fill="#36AE82"/>
<path d="M800.775 415.876L700.719 505.708L753.303 654.697L854.82 564.865L800.775 415.876Z" fill="#36AE82"/>
</g>
<path d="M792.269 531.482C802.213 518.701 795.865 507.294 791.448 503.189C783.888 498.042 774.002 497.288 773.994 493.429C773.451 490.643 773.237 486.359 769.02 486.709C765.288 487.019 764.367 489.983 764.31 491.346C763.677 493.946 764.054 502.576 773.161 505.896C780.315 508.189 793.962 510.962 785.159 525.619L768.552 548.567C763.083 556.324 762.21 562.17 762.967 569.241C763.99 577.478 770.727 584.569 784.631 599.03C785.61 599.911 788.215 601.28 790.801 599.707C793.388 598.134 793.417 595.754 793.108 594.76C789.174 588.294 784.308 584.502 776.64 576.427C772.79 573.011 767.663 562.397 778.489 549.61C789.209 536.356 792.269 531.482 792.269 531.482Z" fill="white"/>
<g filter="url(#filter1_d_346_196)">
<path d="M488.663 402L548.372 253.105H686.686L629.244 402H488.663Z" fill="#E94FAB"/>
<path d="M532.5 248.57L432.733 146.535L370 295.43L474.5 394L532.5 248.57Z" fill="#E94FAB"/>
<path d="M545.349 235.721L453.14 142H586.163L680.64 235.721H545.349Z" fill="#E94FAB"/>
</g>
<path d="M553.018 361.911C548.501 350.822 555.846 342.821 559.27 339.846C561.361 338.496 566.138 331.36 567.604 327.782L592.123 282.891C592.717 281.813 592.849 279.201 590.274 277.445C587.7 275.69 584.882 277.23 584.02 278.849L556.398 328.987C555.469 330.822 554.216 332.27 552.466 333.595C540.535 342.623 541.024 361.433 547.704 370.79C553.664 379.138 570.935 380.735 576.725 379.66C589.41 375.987 593.311 376.404 603.045 381.233C610.608 381.535 624.885 378.974 625.2 362.788C625.516 346.602 613.065 341.993 606.189 341.719C602.981 341.945 602.308 344.36 602.11 346.102C601.686 349.834 605.955 350.18 608.435 350.887C615.961 352.84 617.368 359.953 616.823 363.237C614.422 373.72 606.466 372.86 602.412 370.908C593.12 365.578 582.133 368.032 577.375 369.909C570.824 371.851 557.534 373.001 553.018 361.911Z" fill="white"/>
<g filter="url(#filter2_d_346_196)">
<path d="M424.061 658.399L375.806 507.873L479.518 422.166L528.493 569.091L424.061 658.399Z" fill="#3376C6"/>
<path d="M360.681 511.474L226 501.391L272.814 651.917L408.216 662L360.681 511.474Z" fill="#3376C6"/>
<path d="M237.524 485.546L335.474 402L462.953 413.524L363.562 496.349L237.524 485.546Z" fill="#3376C6"/>
</g>
<path d="M428.177 493.708C409.664 504.097 403.054 527.611 413.443 546.124C414.581 548.151 417.157 548.875 419.184 547.737C421.211 546.599 421.936 544.025 420.798 541.997C412.685 527.539 417.846 509.176 432.304 501.062C446.761 492.948 465.124 498.11 473.238 512.568C478.621 522.161 476.798 528.361 474.683 535.542C472.388 543.344 469.786 552.187 476.793 564.672C480.527 571.325 478.151 579.775 471.499 583.509C464.847 587.242 456.398 584.866 452.664 578.213C451.527 576.186 448.951 575.462 446.923 576.6C444.896 577.738 444.172 580.313 445.31 582.341C451.319 593.048 464.918 596.871 475.626 590.862C486.333 584.853 490.157 571.252 484.148 560.545C478.879 551.156 480.685 545.022 482.776 537.917C485.091 530.049 487.715 521.132 480.592 508.44C470.203 489.927 446.69 483.319 428.177 493.708Z" fill="white"/>
<defs>
<filter id="filter0_d_346_196" x="547" y="402" width="311.82" height="268" filterUnits="userSpaceOnUse" color-interpolation-filters="sRGB">
<feFlood flood-opacity="0" result="BackgroundImageFix"/>
<feColorMatrix in="SourceAlpha" type="matrix" values="0 0 0 0 0 0 0 0 0 0 0 0 0 0 0 0 0 0 127 0" result="hardAlpha"/>
<feOffset dy="4"/>
<feGaussianBlur stdDeviation="2"/>
<feColorMatrix type="matrix" values="0 0 0 0 0 0 0 0 0 0 0 0 0 0 0 0 0 0 0.25 0"/>
<feBlend mode="normal" in2="BackgroundImageFix" result="effect1_dropShadow_346_196"/>
<feBlend mode="normal" in="SourceGraphic" in2="effect1_dropShadow_346_196" result="shape"/>
</filter>
<filter id="filter1_d_346_196" x="366" y="142" width="324.686" height="268" filterUnits="userSpaceOnUse" color-interpolation-filters="sRGB">
<feFlood flood-opacity="0" result="BackgroundImageFix"/>
<feColorMatrix in="SourceAlpha" type="matrix" values="0 0 0 0 0 0 0 0 0 0 0 0 0 0 0 0 0 0 127 0" result="hardAlpha"/>
<feOffset dy="4"/>
<feGaussianBlur stdDeviation="2"/>
<feColorMatrix type="matrix" values="0 0 0 0 0 0 0 0 0 0 0 0 0 0 0 0 0 0 0.25 0"/>
<feBlend mode="normal" in2="BackgroundImageFix" result="effect1_dropShadow_346_196"/>
<feBlend mode="normal" in="SourceGraphic" in2="effect1_dropShadow_346_196" result="shape"/>
</filter>
<filter id="filter2_d_346_196" x="222" y="402" width="310.493" height="268" filterUnits="userSpaceOnUse" color-interpolation-filters="sRGB">
<feFlood flood-opacity="0" result="BackgroundImageFix"/>
<feColorMatrix in="SourceAlpha" type="matrix" values="0 0 0 0 0 0 0 0 0 0 0 0 0 0 0 0 0 0 127 0" result="hardAlpha"/>
<feOffset dy="4"/>
<feGaussianBlur stdDeviation="2"/>
<feColorMatrix type="matrix" values="0 0 0 0 0 0 0 0 0 0 0 0 0 0 0 0 0 0 0.25 0"/>
<feBlend mode="normal" in2="BackgroundImageFix" result="effect1_dropShadow_346_196"/>
<feBlend mode="normal" in="SourceGraphic" in2="effect1_dropShadow_346_196" result="shape"/>
</filter>
</defs>
</svg>
