<svg width="987" height="583" viewBox="0 0 987 583" fill="none" xmlns="http://www.w3.org/2000/svg">
<path d="M193.008 434.432L187.032 434.648C183.672 434.648 181.488 434.192 180.48 433.28C179.856 432.8 179.544 432.128 179.544 431.264C179.544 425.84 179.736 418.736 180.12 409.952C180.504 401.12 180.696 394.256 180.696 389.36C180.696 387.392 182.52 385.808 186.168 384.608C189.816 383.408 193.728 382.808 197.904 382.808C205.728 382.808 212.208 385.016 217.344 389.432C222.528 393.848 225.12 399.584 225.12 406.64C225.12 410.192 224.496 413.48 223.248 416.504C222.048 419.528 220.416 422.144 218.352 424.352C216.288 426.512 213.888 428.36 211.152 429.896C205.68 432.92 199.632 434.432 193.008 434.432ZM220.008 408.368C220.008 402.176 217.896 396.992 213.672 392.816C209.496 388.592 204.072 386.48 197.4 386.48C194.136 386.48 190.248 387.56 185.736 389.72C185.736 393.608 185.544 399.44 185.16 407.216C184.776 414.944 184.584 420.296 184.584 423.272C184.584 426.2 184.608 428.288 184.656 429.536C187.344 430.064 190.224 430.328 193.296 430.328C201.072 430.328 207.456 428.432 212.448 424.64C217.488 420.848 220.008 415.424 220.008 408.368ZM239.796 426.944L240.012 431.048C240.012 432.104 239.7 432.848 239.076 433.28C238.5 433.664 237.9 433.856 237.276 433.856C236.7 433.856 236.1 433.76 235.476 433.568C234.42 428 233.604 421.064 233.028 412.76C232.5 404.456 232.188 399.752 232.092 398.648C232.812 397.976 233.556 397.64 234.324 397.64C235.14 397.64 235.86 397.736 236.484 397.928C236.676 399.32 236.82 402.392 236.916 407.144C237.012 411.896 237.132 414.872 237.276 416.072C237.948 412.04 239.148 408.272 240.876 404.768C241.836 402.8 243.084 401.24 244.62 400.088C246.204 398.888 247.884 398.288 249.66 398.288C251.484 398.288 253.14 399.104 254.628 400.736C256.164 402.32 256.932 403.76 256.932 405.056C256.932 405.536 256.644 405.92 256.068 406.208C255.492 406.448 254.844 406.568 254.124 406.568C253.452 406.568 252.924 406.304 252.54 405.776C252.156 405.248 251.892 404.672 251.748 404.048C251.604 403.376 251.292 402.776 250.812 402.248C250.332 401.72 249.684 401.456 248.868 401.456C246.708 401.456 244.86 403.4 243.324 407.288C240.972 413.096 239.796 419.648 239.796 426.944ZM283.336 413.264L282.976 421.544C282.976 425.72 283.456 428.528 284.416 429.968C284.992 430.928 285.784 431.408 286.792 431.408C287.08 431.408 287.488 431.336 288.016 431.192C289.024 430.904 289.864 431.048 290.536 431.624C290.2 433.304 288.52 434.144 285.496 434.144C283.432 434.144 282.064 433.28 281.392 431.552C280.864 430.256 280.48 428.648 280.24 426.728C280 424.76 279.808 423.416 279.664 422.696C276.544 428.648 273.52 432.272 270.592 433.568C269.104 434.24 267.376 434.576 265.408 434.576C263.44 434.576 261.904 433.64 260.8 431.768C259.744 429.848 259.216 427.064 259.216 423.416C259.216 419.768 259.816 415.952 261.016 411.968C262.216 407.936 263.968 404.552 266.272 401.816C268.576 399.032 271.096 397.64 273.832 397.64C277.768 397.64 280.384 399.272 281.68 402.536C282.784 405.32 283.336 408.896 283.336 413.264ZM265.696 410.96C265.024 413.552 264.52 416.024 264.184 418.376C263.848 420.68 263.68 422.744 263.68 424.568C263.68 426.344 264.04 427.88 264.76 429.176C265.528 430.472 266.512 431.12 267.712 431.12C270.304 431.12 272.8 428.672 275.2 423.776C277.6 418.88 278.8 414.32 278.8 410.096C278.8 407.36 278.08 405.104 276.64 403.328C275.68 402.176 274.408 401.6 272.824 401.6C271.288 401.6 269.872 402.512 268.576 404.336C267.328 406.112 266.368 408.32 265.696 410.96ZM296.6 436.16C295.736 436.16 294.8 435.824 293.792 435.152C292.784 434.528 292.28 433.76 292.28 432.848C292.28 431.936 292.808 431.072 293.864 430.256C294.92 429.392 296 428.96 297.104 428.96C298.208 428.96 299.144 429.272 299.912 429.896C300.68 430.52 301.064 431.312 301.064 432.272C301.064 433.184 300.536 434.048 299.48 434.864C298.472 435.728 297.512 436.16 296.6 436.16ZM327.86 405.344C327.86 397.568 327.452 390.464 326.636 384.032C326.636 383.024 327.332 382.52 328.724 382.52C330.116 382.52 331.964 383.864 334.268 386.552C336.572 389.192 338.78 392.096 340.892 395.264C343.004 398.432 345.116 401.36 347.228 404.048C349.388 406.688 350.924 408.008 351.836 408.008C352.748 408.008 354.212 406.616 356.228 403.832C358.292 401 360.308 397.928 362.276 394.616C364.292 391.256 366.452 388.184 368.756 385.4C371.108 382.568 372.98 381.152 374.372 381.152C375.812 381.152 376.532 381.536 376.532 382.304C376.964 388.208 377.18 393.488 377.18 398.144C377.18 402.8 377.156 406.592 377.108 409.52C377.06 412.4 377.012 414.512 376.964 415.856C376.964 417.152 376.892 420.152 376.748 424.856C376.604 429.512 376.532 432.248 376.532 433.064C375.812 434.072 374.828 434.576 373.58 434.576C373.052 434.576 372.548 434.432 372.068 434.144C371.78 428.24 371.636 421.28 371.636 413.264C371.636 405.248 371.708 396.944 371.852 388.352C370.892 389.12 369.524 390.92 367.748 393.752C366.02 396.536 364.34 399.32 362.708 402.104C361.076 404.84 359.228 407.336 357.164 409.592C355.1 411.8 353.18 412.904 351.404 412.904C349.628 412.904 347.588 411.608 345.284 409.016C343.028 406.424 340.508 402.92 337.724 398.504C334.988 394.04 333.188 391.256 332.324 390.152C332.564 394.184 332.684 398.384 332.684 402.752C332.684 407.072 332.66 410.096 332.612 411.824C332.564 419.504 332.42 426.488 332.18 432.776C331.412 433.784 330.212 434.288 328.58 434.288C328.148 434.288 327.74 434.216 327.356 434.072C327.356 434.072 327.524 424.496 327.86 405.344ZM409.406 413.264L409.046 421.544C409.046 425.72 409.526 428.528 410.486 429.968C411.062 430.928 411.854 431.408 412.862 431.408C413.15 431.408 413.558 431.336 414.086 431.192C415.094 430.904 415.934 431.048 416.606 431.624C416.27 433.304 414.59 434.144 411.566 434.144C409.502 434.144 408.134 433.28 407.462 431.552C406.934 430.256 406.55 428.648 406.31 426.728C406.07 424.76 405.878 423.416 405.734 422.696C402.614 428.648 399.59 432.272 396.662 433.568C395.174 434.24 393.446 434.576 391.478 434.576C389.51 434.576 387.974 433.64 386.87 431.768C385.814 429.848 385.286 427.064 385.286 423.416C385.286 419.768 385.886 415.952 387.086 411.968C388.286 407.936 390.038 404.552 392.342 401.816C394.646 399.032 397.166 397.64 399.902 397.64C403.838 397.64 406.454 399.272 407.75 402.536C408.854 405.32 409.406 408.896 409.406 413.264ZM391.766 410.96C391.094 413.552 390.59 416.024 390.254 418.376C389.918 420.68 389.75 422.744 389.75 424.568C389.75 426.344 390.11 427.88 390.83 429.176C391.598 430.472 392.582 431.12 393.782 431.12C396.374 431.12 398.87 428.672 401.27 423.776C403.67 418.88 404.87 414.32 404.87 410.096C404.87 407.36 404.15 405.104 402.71 403.328C401.75 402.176 400.478 401.6 398.894 401.6C397.358 401.6 395.942 402.512 394.646 404.336C393.398 406.112 392.438 408.32 391.766 410.96ZM436.206 403.76C436.206 400.304 437.31 398.576 439.518 398.576C439.95 398.576 440.382 398.624 440.814 398.72C440.814 399.296 440.814 400.856 440.814 403.4C440.814 405.944 441.15 411.032 441.822 418.664C442.494 426.296 442.83 432.008 442.83 435.8C442.83 441.848 441.774 446.024 439.662 448.328C437.55 450.632 433.95 451.784 428.862 451.784C423.822 451.784 419.07 450.152 414.606 446.888C415.47 445.832 416.598 445.304 417.99 445.304C418.518 445.352 419.358 445.712 420.51 446.384C423.918 448.4 426.75 449.408 429.006 449.408C432.366 449.408 434.742 448.352 436.134 446.24C437.526 444.128 438.222 440.576 438.222 435.584C438.222 434.384 438.102 430.064 437.862 422.624C437.814 422.768 437.646 423.392 437.358 424.496C437.07 425.552 436.854 426.248 436.71 426.584C436.566 426.92 436.302 427.544 435.918 428.456C435.582 429.368 435.222 430.016 434.838 430.4C434.454 430.784 433.95 431.24 433.326 431.768C432.27 432.728 430.926 433.208 429.294 433.208C427.71 433.208 426.438 432.992 425.478 432.56C424.518 432.128 423.702 431.456 423.03 430.544C422.406 429.632 421.83 428.672 421.302 427.664C420.822 426.656 420.438 425.384 420.15 423.848C419.862 422.264 419.622 420.824 419.43 419.528C419.286 418.232 419.166 416.648 419.07 414.776C419.022 412.904 418.974 411.344 418.926 410.096C418.926 408.848 418.926 407.264 418.926 405.344V401.024C419.406 400.208 420.27 399.8 421.518 399.8C423.246 399.8 424.11 400.424 424.11 401.672L423.678 408.656C423.678 414.752 424.326 420.008 425.622 424.424C426.918 428.84 428.262 431.048 429.654 431.048C430.71 431.048 431.646 430.472 432.462 429.32C433.278 428.168 433.902 426.56 434.334 424.496C434.766 422.384 435.126 420.392 435.414 418.52C435.702 416.648 435.894 414.464 435.99 411.968C436.134 408.176 436.206 405.44 436.206 403.76ZM473.602 413.264L473.242 421.544C473.242 425.72 473.722 428.528 474.682 429.968C475.258 430.928 476.05 431.408 477.058 431.408C477.346 431.408 477.754 431.336 478.282 431.192C479.29 430.904 480.13 431.048 480.802 431.624C480.466 433.304 478.786 434.144 475.762 434.144C473.698 434.144 472.33 433.28 471.658 431.552C471.13 430.256 470.746 428.648 470.506 426.728C470.266 424.76 470.074 423.416 469.93 422.696C466.81 428.648 463.786 432.272 460.858 433.568C459.37 434.24 457.642 434.576 455.674 434.576C453.706 434.576 452.17 433.64 451.066 431.768C450.01 429.848 449.482 427.064 449.482 423.416C449.482 419.768 450.082 415.952 451.282 411.968C452.482 407.936 454.234 404.552 456.538 401.816C458.842 399.032 461.362 397.64 464.098 397.64C468.034 397.64 470.65 399.272 471.946 402.536C473.05 405.32 473.602 408.896 473.602 413.264ZM455.962 410.96C455.29 413.552 454.786 416.024 454.45 418.376C454.114 420.68 453.946 422.744 453.946 424.568C453.946 426.344 454.306 427.88 455.026 429.176C455.794 430.472 456.778 431.12 457.978 431.12C460.57 431.12 463.066 428.672 465.466 423.776C467.866 418.88 469.066 414.32 469.066 410.096C469.066 407.36 468.346 405.104 466.906 403.328C465.946 402.176 464.674 401.6 463.09 401.6C461.554 401.6 460.138 402.512 458.842 404.336C457.594 406.112 456.634 408.32 455.962 410.96ZM490.249 426.944L490.465 431.048C490.465 432.104 490.153 432.848 489.529 433.28C488.953 433.664 488.353 433.856 487.729 433.856C487.153 433.856 486.553 433.76 485.929 433.568C484.873 428 484.057 421.064 483.481 412.76C482.953 404.456 482.641 399.752 482.545 398.648C483.265 397.976 484.009 397.64 484.777 397.64C485.593 397.64 486.313 397.736 486.937 397.928C487.129 399.32 487.273 402.392 487.369 407.144C487.465 411.896 487.585 414.872 487.729 416.072C488.401 412.04 489.601 408.272 491.329 404.768C492.289 402.8 493.537 401.24 495.073 400.088C496.657 398.888 498.337 398.288 500.113 398.288C501.937 398.288 503.593 399.104 505.081 400.736C506.617 402.32 507.385 403.76 507.385 405.056C507.385 405.536 507.097 405.92 506.521 406.208C505.945 406.448 505.297 406.568 504.577 406.568C503.905 406.568 503.377 406.304 502.993 405.776C502.609 405.248 502.345 404.672 502.201 404.048C502.057 403.376 501.745 402.776 501.265 402.248C500.785 401.72 500.137 401.456 499.321 401.456C497.161 401.456 495.313 403.4 493.777 407.288C491.425 413.096 490.249 419.648 490.249 426.944ZM533.789 413.264L533.429 421.544C533.429 425.72 533.909 428.528 534.869 429.968C535.445 430.928 536.237 431.408 537.245 431.408C537.533 431.408 537.941 431.336 538.469 431.192C539.477 430.904 540.317 431.048 540.989 431.624C540.653 433.304 538.973 434.144 535.949 434.144C533.885 434.144 532.517 433.28 531.845 431.552C531.317 430.256 530.933 428.648 530.693 426.728C530.453 424.76 530.261 423.416 530.117 422.696C526.997 428.648 523.973 432.272 521.045 433.568C519.557 434.24 517.829 434.576 515.861 434.576C513.893 434.576 512.357 433.64 511.253 431.768C510.197 429.848 509.669 427.064 509.669 423.416C509.669 419.768 510.269 415.952 511.469 411.968C512.669 407.936 514.421 404.552 516.725 401.816C519.029 399.032 521.549 397.64 524.285 397.64C528.221 397.64 530.837 399.272 532.133 402.536C533.237 405.32 533.789 408.896 533.789 413.264ZM516.149 410.96C515.477 413.552 514.973 416.024 514.637 418.376C514.301 420.68 514.133 422.744 514.133 424.568C514.133 426.344 514.493 427.88 515.213 429.176C515.981 430.472 516.965 431.12 518.165 431.12C520.757 431.12 523.253 428.672 525.653 423.776C528.053 418.88 529.253 414.32 529.253 410.096C529.253 407.36 528.533 405.104 527.093 403.328C526.133 402.176 524.861 401.6 523.277 401.6C521.741 401.6 520.325 402.512 519.029 404.336C517.781 406.112 516.821 408.32 516.149 410.96ZM562.071 405.344C562.071 397.568 561.663 390.464 560.847 384.032C560.847 383.024 561.543 382.52 562.935 382.52C564.327 382.52 566.175 383.864 568.479 386.552C570.783 389.192 572.991 392.096 575.103 395.264C577.215 398.432 579.327 401.36 581.439 404.048C583.599 406.688 585.135 408.008 586.047 408.008C586.959 408.008 588.423 406.616 590.439 403.832C592.503 401 594.519 397.928 596.487 394.616C598.503 391.256 600.663 388.184 602.967 385.4C605.319 382.568 607.191 381.152 608.583 381.152C610.023 381.152 610.743 381.536 610.743 382.304C611.175 388.208 611.391 393.488 611.391 398.144C611.391 402.8 611.367 406.592 611.319 409.52C611.271 412.4 611.223 414.512 611.175 415.856C611.175 417.152 611.103 420.152 610.959 424.856C610.815 429.512 610.743 432.248 610.743 433.064C610.023 434.072 609.039 434.576 607.791 434.576C607.263 434.576 606.759 434.432 606.279 434.144C605.991 428.24 605.847 421.28 605.847 413.264C605.847 405.248 605.919 396.944 606.063 388.352C605.103 389.12 603.735 390.92 601.959 393.752C600.231 396.536 598.551 399.32 596.919 402.104C595.287 404.84 593.439 407.336 591.375 409.592C589.311 411.8 587.391 412.904 585.615 412.904C583.839 412.904 581.799 411.608 579.495 409.016C577.239 406.424 574.719 402.92 571.935 398.504C569.199 394.04 567.399 391.256 566.535 390.152C566.775 394.184 566.895 398.384 566.895 402.752C566.895 407.072 566.871 410.096 566.823 411.824C566.775 419.504 566.631 426.488 566.391 432.776C565.623 433.784 564.423 434.288 562.791 434.288C562.359 434.288 561.951 434.216 561.567 434.072C561.567 434.072 561.735 424.496 562.071 405.344ZM623.384 404.12C625.832 400.376 629.36 398.504 633.968 398.504C638.576 398.504 642.248 400.376 644.984 404.12C647.768 407.864 649.16 412.136 649.16 416.936C649.16 421.688 647.648 425.72 644.624 429.032C641.6 432.344 637.76 434 633.104 434C628.448 434 625.064 432.704 622.952 430.112C620.84 427.472 619.784 423.776 619.784 419.024C619.784 412.832 620.984 407.864 623.384 404.12ZM626.552 407.936C625.928 409.808 625.448 411.68 625.112 413.552C624.824 415.424 624.68 417.176 624.68 418.808C624.68 420.392 624.8 421.856 625.04 423.2C625.28 424.496 625.688 425.792 626.264 427.088C626.84 428.336 627.704 429.344 628.856 430.112C630.008 430.832 631.376 431.192 632.96 431.192C636.176 431.192 638.864 429.872 641.024 427.232C643.232 424.592 644.336 421.4 644.336 417.656C644.336 413.912 643.328 410.288 641.312 406.784C639.344 403.232 636.92 401.456 634.04 401.456C632.312 401.456 630.8 402.056 629.504 403.256C628.208 404.456 627.224 406.016 626.552 407.936ZM663.288 426.944L663.504 431.048C663.504 432.104 663.192 432.848 662.568 433.28C661.992 433.664 661.392 433.856 660.768 433.856C660.192 433.856 659.592 433.76 658.968 433.568C657.912 428 657.096 421.064 656.52 412.76C655.992 404.456 655.68 399.752 655.584 398.648C656.304 397.976 657.048 397.64 657.816 397.64C658.632 397.64 659.352 397.736 659.976 397.928C660.168 399.32 660.312 402.392 660.408 407.144C660.504 411.896 660.624 414.872 660.768 416.072C661.44 412.04 662.64 408.272 664.368 404.768C665.328 402.8 666.576 401.24 668.112 400.088C669.696 398.888 671.376 398.288 673.152 398.288C674.976 398.288 676.632 399.104 678.12 400.736C679.656 402.32 680.424 403.76 680.424 405.056C680.424 405.536 680.136 405.92 679.56 406.208C678.984 406.448 678.336 406.568 677.616 406.568C676.944 406.568 676.416 406.304 676.032 405.776C675.648 405.248 675.384 404.672 675.24 404.048C675.096 403.376 674.784 402.776 674.304 402.248C673.824 401.72 673.176 401.456 672.36 401.456C670.2 401.456 668.352 403.4 666.816 407.288C664.464 413.096 663.288 419.648 663.288 426.944ZM687.397 419.384C687.301 420.344 687.253 420.992 687.253 421.328C687.253 424.208 688.117 426.44 689.845 428.024C691.621 429.608 693.709 430.4 696.109 430.4C698.509 430.4 700.453 430.064 701.941 429.392C703.477 428.72 704.581 428 705.253 427.232C706.981 425.072 708.565 423.992 710.005 423.992C710.533 423.992 711.157 424.136 711.877 424.424C711.397 426.776 709.573 428.936 706.405 430.904C703.285 432.824 699.349 433.784 694.597 433.784C691.237 433.784 688.333 432.728 685.885 430.616C683.485 428.456 682.285 425.528 682.285 421.832C682.285 418.136 683.005 414.56 684.445 411.104C685.933 407.6 688.045 404.624 690.781 402.176C693.565 399.68 696.373 398.432 699.205 398.432C702.085 398.432 704.389 399.032 706.117 400.232C707.893 401.384 708.781 403.088 708.781 405.344C708.781 409.52 706.909 412.976 703.165 415.712C699.469 418.4 695.533 419.744 691.357 419.744C690.253 419.744 688.933 419.624 687.397 419.384ZM692.869 417.008C695.125 417.008 697.141 416.288 698.917 414.848C700.693 413.408 701.941 411.896 702.661 410.312C703.429 408.728 703.813 407.288 703.813 405.992C703.813 404.696 703.309 403.568 702.301 402.608C701.293 401.6 700.117 401.096 698.773 401.096C696.373 401.096 694.141 402.752 692.077 406.064C690.061 409.376 688.621 412.808 687.757 416.36C689.869 416.792 691.573 417.008 692.869 417.008ZM722.868 381.008C722.82 382.112 722.796 383.336 722.796 384.68C722.796 386.024 722.868 387.416 723.012 388.856C722.34 389.624 721.428 390.008 720.276 390.008C718.836 390.008 718.116 388.856 718.116 386.552C718.116 386.456 718.116 386.096 718.116 385.472C718.116 384.848 718.116 384.296 718.116 383.816C718.164 383.288 718.26 382.688 718.404 382.016C718.74 380.864 719.484 380.288 720.636 380.288C721.788 380.288 722.532 380.528 722.868 381.008ZM718.26 416.288C718.26 406.88 718.74 401.456 719.7 400.016C720.036 399.488 720.444 399.224 720.924 399.224C721.404 399.224 722.196 399.488 723.3 400.016C723.06 404.096 722.94 408.536 722.94 413.336C722.94 413.336 722.988 418.64 723.084 429.248C723.084 430.736 722.748 431.792 722.076 432.416C721.452 432.992 720.852 433.28 720.276 433.28C719.748 433.28 719.196 433.136 718.62 432.848C718.38 426.608 718.26 421.088 718.26 416.288ZM739.226 426.944L739.442 431.048C739.442 432.104 739.13 432.848 738.506 433.28C737.93 433.664 737.33 433.856 736.706 433.856C736.13 433.856 735.53 433.76 734.906 433.568C733.85 428 733.034 421.064 732.458 412.76C731.93 404.456 731.618 399.752 731.522 398.648C732.242 397.976 732.986 397.64 733.754 397.64C734.57 397.64 735.29 397.736 735.914 397.928C736.106 399.32 736.25 402.392 736.346 407.144C736.442 411.896 736.562 414.872 736.706 416.072C737.378 412.04 738.578 408.272 740.306 404.768C741.266 402.8 742.514 401.24 744.05 400.088C745.634 398.888 747.314 398.288 749.09 398.288C750.914 398.288 752.57 399.104 754.058 400.736C755.594 402.32 756.362 403.76 756.362 405.056C756.362 405.536 756.074 405.92 755.498 406.208C754.922 406.448 754.274 406.568 753.554 406.568C752.882 406.568 752.354 406.304 751.97 405.776C751.586 405.248 751.322 404.672 751.178 404.048C751.034 403.376 750.722 402.776 750.242 402.248C749.762 401.72 749.114 401.456 748.298 401.456C746.138 401.456 744.29 403.4 742.754 407.288C740.402 413.096 739.226 419.648 739.226 426.944ZM782.766 413.264L782.406 421.544C782.406 425.72 782.886 428.528 783.846 429.968C784.422 430.928 785.214 431.408 786.222 431.408C786.51 431.408 786.918 431.336 787.446 431.192C788.454 430.904 789.294 431.048 789.966 431.624C789.63 433.304 787.95 434.144 784.926 434.144C782.862 434.144 781.494 433.28 780.822 431.552C780.294 430.256 779.91 428.648 779.67 426.728C779.43 424.76 779.238 423.416 779.094 422.696C775.974 428.648 772.95 432.272 770.022 433.568C768.534 434.24 766.806 434.576 764.838 434.576C762.87 434.576 761.334 433.64 760.23 431.768C759.174 429.848 758.646 427.064 758.646 423.416C758.646 419.768 759.246 415.952 760.446 411.968C761.646 407.936 763.398 404.552 765.702 401.816C768.006 399.032 770.526 397.64 773.262 397.64C777.198 397.64 779.814 399.272 781.11 402.536C782.214 405.32 782.766 408.896 782.766 413.264ZM765.126 410.96C764.454 413.552 763.95 416.024 763.614 418.376C763.278 420.68 763.11 422.744 763.11 424.568C763.11 426.344 763.47 427.88 764.19 429.176C764.958 430.472 765.942 431.12 767.142 431.12C769.734 431.12 772.23 428.672 774.63 423.776C777.03 418.88 778.23 414.32 778.23 410.096C778.23 407.36 777.51 405.104 776.07 403.328C775.11 402.176 773.838 401.6 772.254 401.6C770.718 401.6 769.302 402.512 768.006 404.336C766.758 406.112 765.798 408.32 765.126 410.96Z" fill="black"/>
<path d="M112 471L831.5 471" stroke="black" stroke-width="1.3"/>
<path d="M216.296 502.96C217.96 504.24 219.288 505.92 220.28 508C221.304 510.048 221.816 512.448 221.816 515.2C221.816 517.952 221.256 520.528 220.136 522.928C219.016 525.328 217.56 527.232 215.768 528.64C212.088 531.52 208.008 532.96 203.528 532.96C199.08 532.96 195.272 531.52 192.104 528.64C188.936 525.728 187.352 521.76 187.352 516.736C187.352 513.856 187.816 511.264 188.744 508.96C189.704 506.656 190.984 504.8 192.584 503.392C195.912 500.448 199.848 498.976 204.392 498.976C208.872 498.976 212.84 500.304 216.296 502.96ZM190.52 516.832C190.52 520.96 191.688 524.256 194.024 526.72C196.392 529.184 199.528 530.416 203.432 530.416C207.944 530.416 211.56 529.04 214.28 526.288C217.032 523.504 218.408 520 218.408 515.776C218.408 511.52 217.032 508.128 214.28 505.6C211.528 503.072 208.184 501.808 204.248 501.808C200.312 501.808 197.032 503.104 194.408 505.696C191.816 508.256 190.52 511.968 190.52 516.832ZM227.021 511.888C225.581 511.888 224.605 511.536 224.093 510.832C224.093 510.32 224.301 509.92 224.717 509.632C225.165 509.344 225.645 509.168 226.157 509.104C226.669 509.008 227.501 508.928 228.653 508.864C228.749 508 228.797 506.896 228.797 505.552C228.829 504.176 228.861 503.008 228.893 502.048C228.989 499.52 229.373 497.968 230.045 497.392C230.333 497.136 230.637 497.008 230.957 497.008C231.309 497.008 231.613 497.04 231.869 497.104C231.965 499.408 232.013 500.8 232.013 501.28L231.725 508.48C231.789 508.512 231.965 508.528 232.253 508.528L235.709 508.384C238.205 508.384 239.453 508.768 239.453 509.536C239.453 510.624 239.005 511.264 238.109 511.456C237.693 511.552 237.197 511.6 236.621 511.6C236.077 511.6 235.357 511.536 234.461 511.408C233.597 511.248 232.973 511.168 232.589 511.168C232.205 511.168 231.949 511.184 231.821 511.216C231.725 512.144 231.677 513.072 231.677 514C231.677 514.896 231.693 516.032 231.725 517.408C231.789 518.752 231.917 520.368 232.109 522.256C232.333 524.144 232.797 525.776 233.501 527.152C234.205 528.496 235.101 529.168 236.189 529.168C236.733 529.168 237.373 528.96 238.109 528.544C238.845 528.096 239.405 527.872 239.789 527.872C240.205 527.872 240.557 527.968 240.845 528.16C241.165 528.32 241.325 528.512 241.325 528.736C241.325 529.408 240.637 530.064 239.261 530.704C237.917 531.312 236.765 531.616 235.805 531.616C232.285 531.616 230.093 528.288 229.229 521.632C228.973 519.712 228.781 516.416 228.653 511.744C228.141 511.84 227.597 511.888 227.021 511.888ZM245.808 512.08C247.44 509.584 249.792 508.336 252.864 508.336C255.936 508.336 258.384 509.584 260.208 512.08C262.064 514.576 262.992 517.424 262.992 520.624C262.992 523.792 261.984 526.48 259.968 528.688C257.952 530.896 255.392 532 252.288 532C249.184 532 246.928 531.136 245.52 529.408C244.112 527.648 243.408 525.184 243.408 522.016C243.408 517.888 244.208 514.576 245.808 512.08ZM247.92 514.624C247.504 515.872 247.184 517.12 246.96 518.368C246.768 519.616 246.672 520.784 246.672 521.872C246.672 522.928 246.752 523.904 246.912 524.8C247.072 525.664 247.344 526.528 247.728 527.392C248.112 528.224 248.688 528.896 249.456 529.408C250.224 529.888 251.136 530.128 252.192 530.128C254.336 530.128 256.128 529.248 257.568 527.488C259.04 525.728 259.776 523.6 259.776 521.104C259.776 518.608 259.104 516.192 257.76 513.856C256.448 511.488 254.832 510.304 252.912 510.304C251.76 510.304 250.752 510.704 249.888 511.504C249.024 512.304 248.368 513.344 247.92 514.624ZM272.411 527.296L272.555 530.032C272.555 530.736 272.347 531.232 271.931 531.52C271.547 531.776 271.147 531.904 270.731 531.904C270.347 531.904 269.947 531.84 269.531 531.712C268.827 528 268.283 523.376 267.899 517.84C267.547 512.304 267.339 509.168 267.275 508.432C267.755 507.984 268.251 507.76 268.763 507.76C269.307 507.76 269.787 507.824 270.203 507.952C270.331 508.88 270.427 510.928 270.491 514.096C270.555 517.264 270.635 519.248 270.731 520.048C271.179 517.36 271.979 514.848 273.131 512.512C273.771 511.2 274.603 510.16 275.627 509.392C276.683 508.592 277.803 508.192 278.987 508.192C280.203 508.192 281.307 508.736 282.299 509.824C283.323 510.88 283.835 511.84 283.835 512.704C283.835 513.024 283.643 513.28 283.259 513.472C282.875 513.632 282.443 513.712 281.963 513.712C281.515 513.712 281.163 513.536 280.907 513.184C280.651 512.832 280.475 512.448 280.379 512.032C280.283 511.584 280.075 511.184 279.755 510.832C279.435 510.48 279.003 510.304 278.459 510.304C277.019 510.304 275.787 511.6 274.763 514.192C273.195 518.064 272.411 522.432 272.411 527.296ZM291.536 527.296L291.68 530.032C291.68 530.736 291.472 531.232 291.056 531.52C290.672 531.776 290.272 531.904 289.856 531.904C289.472 531.904 289.072 531.84 288.656 531.712C287.952 528 287.408 523.376 287.024 517.84C286.672 512.304 286.464 509.168 286.4 508.432C286.88 507.984 287.376 507.76 287.888 507.76C288.432 507.76 288.912 507.824 289.328 507.952C289.456 508.88 289.552 510.928 289.616 514.096C289.68 517.264 289.76 519.248 289.856 520.048C290.304 517.36 291.104 514.848 292.256 512.512C292.896 511.2 293.728 510.16 294.752 509.392C295.808 508.592 296.928 508.192 298.112 508.192C299.328 508.192 300.432 508.736 301.424 509.824C302.448 510.88 302.96 511.84 302.96 512.704C302.96 513.024 302.768 513.28 302.384 513.472C302 513.632 301.568 513.712 301.088 513.712C300.64 513.712 300.288 513.536 300.032 513.184C299.776 512.832 299.6 512.448 299.504 512.032C299.408 511.584 299.2 511.184 298.88 510.832C298.56 510.48 298.128 510.304 297.584 510.304C296.144 510.304 294.912 511.6 293.888 514.192C292.32 518.064 291.536 522.432 291.536 527.296ZM309.365 496.672C309.333 497.408 309.317 498.224 309.317 499.12C309.317 500.016 309.365 500.944 309.461 501.904C309.013 502.416 308.405 502.672 307.637 502.672C306.677 502.672 306.197 501.904 306.197 500.368C306.197 500.304 306.197 500.064 306.197 499.648C306.197 499.232 306.197 498.864 306.197 498.544C306.229 498.192 306.293 497.792 306.389 497.344C306.613 496.576 307.109 496.192 307.877 496.192C308.645 496.192 309.141 496.352 309.365 496.672ZM306.293 520.192C306.293 513.92 306.613 510.304 307.253 509.344C307.477 508.992 307.749 508.816 308.069 508.816C308.389 508.816 308.917 508.992 309.653 509.344C309.493 512.064 309.413 515.024 309.413 518.224C309.413 518.224 309.445 521.76 309.509 528.832C309.509 529.824 309.285 530.528 308.837 530.944C308.421 531.328 308.021 531.52 307.637 531.52C307.285 531.52 306.917 531.424 306.533 531.232C306.373 527.072 306.293 523.392 306.293 520.192ZM335.294 530.656C334.718 531.264 334.062 531.568 333.326 531.568C331.95 531.568 330.926 530.832 330.254 529.36C329.582 527.888 329.182 526.096 329.054 523.984C328.958 521.872 328.894 519.76 328.862 517.648C328.83 515.536 328.654 513.744 328.334 512.272C328.046 510.8 327.486 510.064 326.654 510.064C325.534 510.064 324.574 511.072 323.774 513.088C323.006 515.104 322.462 517.344 322.142 519.808C321.246 526.688 320.382 530.544 319.55 531.376C318.974 531.664 318.478 531.808 318.062 531.808C317.646 531.808 317.294 531.76 317.006 531.664C316.334 528.72 315.902 523.648 315.71 516.448C315.646 512.864 315.582 510.544 315.518 509.488C316.19 509.04 316.766 508.816 317.246 508.816C317.726 508.816 318.11 508.864 318.398 508.96C318.558 510.336 318.638 513.152 318.638 517.408C318.67 521.664 318.702 524.112 318.734 524.752C318.894 524.08 319.086 522.992 319.31 521.488C319.566 519.984 319.79 518.752 319.982 517.792C320.174 516.8 320.478 515.648 320.894 514.336C321.31 513.024 321.774 511.984 322.286 511.216C322.798 510.416 323.502 509.744 324.398 509.2C325.294 508.624 326.302 508.336 327.422 508.336C328.926 508.336 330.014 509.024 330.686 510.4C331.39 511.744 331.774 513.424 331.838 515.44C331.902 517.456 331.934 519.504 331.934 521.584C331.966 523.664 332.222 525.568 332.702 527.296C333.214 529.024 334.078 530.144 335.294 530.656ZM340.027 512.08C341.659 509.584 344.011 508.336 347.083 508.336C350.155 508.336 352.603 509.584 354.427 512.08C356.283 514.576 357.211 517.424 357.211 520.624C357.211 523.792 356.203 526.48 354.187 528.688C352.171 530.896 349.611 532 346.507 532C343.403 532 341.147 531.136 339.739 529.408C338.331 527.648 337.627 525.184 337.627 522.016C337.627 517.888 338.427 514.576 340.027 512.08ZM342.139 514.624C341.723 515.872 341.403 517.12 341.179 518.368C340.987 519.616 340.891 520.784 340.891 521.872C340.891 522.928 340.971 523.904 341.131 524.8C341.291 525.664 341.563 526.528 341.947 527.392C342.331 528.224 342.907 528.896 343.675 529.408C344.443 529.888 345.355 530.128 346.411 530.128C348.555 530.128 350.347 529.248 351.787 527.488C353.259 525.728 353.995 523.6 353.995 521.104C353.995 518.608 353.323 516.192 351.979 513.856C350.667 511.488 349.051 510.304 347.131 510.304C345.979 510.304 344.971 510.704 344.107 511.504C343.243 512.304 342.587 513.344 342.139 514.624ZM363.51 503.296C363.51 500.128 363.078 498 362.214 496.912C362.63 496.304 363.35 496 364.374 496C364.566 496 364.774 496.016 364.998 496.048C365.798 496.848 366.198 499.168 366.198 503.008C366.198 505.088 366.102 507.504 365.91 510.256C365.526 515.056 365.334 518.576 365.334 520.816C365.334 526.864 366.502 529.888 368.838 529.888C368.838 529.888 369.43 529.776 370.614 529.552C370.902 529.552 371.142 529.68 371.334 529.936C371.238 531.088 370.294 531.664 368.502 531.664C366.742 531.664 365.382 531.136 364.422 530.08C363.462 528.992 362.854 527.648 362.598 526.048C362.374 524.416 362.262 523.072 362.262 522.016C362.262 520.96 362.278 519.808 362.31 518.56C362.342 517.28 362.486 515.456 362.742 513.088C363.254 508.288 363.51 505.024 363.51 503.296ZM388.531 518.176L388.291 523.696C388.291 526.48 388.611 528.352 389.251 529.312C389.635 529.952 390.163 530.272 390.835 530.272C391.027 530.272 391.299 530.224 391.651 530.128C392.323 529.936 392.883 530.032 393.331 530.416C393.107 531.536 391.987 532.096 389.971 532.096C388.595 532.096 387.683 531.52 387.235 530.368C386.883 529.504 386.627 528.432 386.467 527.152C386.307 525.84 386.179 524.944 386.083 524.464C384.003 528.432 381.987 530.848 380.035 531.712C379.043 532.16 377.891 532.384 376.579 532.384C375.267 532.384 374.243 531.76 373.507 530.512C372.803 529.232 372.451 527.376 372.451 524.944C372.451 522.512 372.851 519.968 373.651 517.312C374.451 514.624 375.619 512.368 377.155 510.544C378.691 508.688 380.371 507.76 382.195 507.76C384.819 507.76 386.563 508.848 387.427 511.024C388.163 512.88 388.531 515.264 388.531 518.176ZM376.771 516.64C376.323 518.368 375.987 520.016 375.763 521.584C375.539 523.12 375.427 524.496 375.427 525.712C375.427 526.896 375.667 527.92 376.147 528.784C376.659 529.648 377.315 530.08 378.115 530.08C379.843 530.08 381.507 528.448 383.107 525.184C384.707 521.92 385.507 518.88 385.507 516.064C385.507 514.24 385.027 512.736 384.067 511.552C383.427 510.784 382.579 510.4 381.523 510.4C380.499 510.4 379.555 511.008 378.691 512.224C377.859 513.408 377.219 514.88 376.771 516.64ZM399.63 527.296L399.774 530.032C399.774 530.736 399.566 531.232 399.15 531.52C398.766 531.776 398.366 531.904 397.95 531.904C397.566 531.904 397.166 531.84 396.75 531.712C396.046 528 395.502 523.376 395.118 517.84C394.766 512.304 394.558 509.168 394.494 508.432C394.974 507.984 395.47 507.76 395.982 507.76C396.526 507.76 397.006 507.824 397.422 507.952C397.55 508.88 397.646 510.928 397.71 514.096C397.774 517.264 397.854 519.248 397.95 520.048C398.398 517.36 399.198 514.848 400.35 512.512C400.99 511.2 401.822 510.16 402.846 509.392C403.902 508.592 405.022 508.192 406.206 508.192C407.422 508.192 408.526 508.736 409.518 509.824C410.542 510.88 411.054 511.84 411.054 512.704C411.054 513.024 410.862 513.28 410.478 513.472C410.094 513.632 409.662 513.712 409.182 513.712C408.734 513.712 408.382 513.536 408.126 513.184C407.87 512.832 407.694 512.448 407.598 512.032C407.502 511.584 407.294 511.184 406.974 510.832C406.654 510.48 406.222 510.304 405.678 510.304C404.238 510.304 403.006 511.6 401.982 514.192C400.414 518.064 399.63 522.432 399.63 527.296ZM417.459 496.672C417.427 497.408 417.411 498.224 417.411 499.12C417.411 500.016 417.459 500.944 417.555 501.904C417.107 502.416 416.499 502.672 415.731 502.672C414.771 502.672 414.291 501.904 414.291 500.368C414.291 500.304 414.291 500.064 414.291 499.648C414.291 499.232 414.291 498.864 414.291 498.544C414.323 498.192 414.387 497.792 414.483 497.344C414.707 496.576 415.203 496.192 415.971 496.192C416.739 496.192 417.235 496.352 417.459 496.672ZM414.387 520.192C414.387 513.92 414.707 510.304 415.347 509.344C415.571 508.992 415.843 508.816 416.163 508.816C416.483 508.816 417.011 508.992 417.747 509.344C417.587 512.064 417.507 515.024 417.507 518.224C417.507 518.224 417.539 521.76 417.603 528.832C417.603 529.824 417.379 530.528 416.931 530.944C416.515 531.328 416.115 531.52 415.731 531.52C415.379 531.52 415.011 531.424 414.627 531.232C414.467 527.072 414.387 523.392 414.387 520.192ZM443.388 530.656C442.812 531.264 442.156 531.568 441.42 531.568C440.044 531.568 439.02 530.832 438.348 529.36C437.676 527.888 437.276 526.096 437.148 523.984C437.052 521.872 436.988 519.76 436.956 517.648C436.924 515.536 436.748 513.744 436.428 512.272C436.14 510.8 435.58 510.064 434.748 510.064C433.628 510.064 432.668 511.072 431.868 513.088C431.1 515.104 430.556 517.344 430.236 519.808C429.34 526.688 428.476 530.544 427.644 531.376C427.068 531.664 426.572 531.808 426.156 531.808C425.74 531.808 425.388 531.76 425.1 531.664C424.428 528.72 423.996 523.648 423.804 516.448C423.74 512.864 423.676 510.544 423.612 509.488C424.284 509.04 424.86 508.816 425.34 508.816C425.82 508.816 426.204 508.864 426.492 508.96C426.652 510.336 426.732 513.152 426.732 517.408C426.764 521.664 426.796 524.112 426.828 524.752C426.988 524.08 427.18 522.992 427.404 521.488C427.66 519.984 427.884 518.752 428.076 517.792C428.268 516.8 428.572 515.648 428.988 514.336C429.404 513.024 429.868 511.984 430.38 511.216C430.892 510.416 431.596 509.744 432.492 509.2C433.388 508.624 434.396 508.336 435.516 508.336C437.02 508.336 438.108 509.024 438.78 510.4C439.484 511.744 439.868 513.424 439.932 515.44C439.996 517.456 440.028 519.504 440.028 521.584C440.06 523.664 440.316 525.568 440.796 527.296C441.308 529.024 442.172 530.144 443.388 530.656ZM454.888 508C457.8 508 459.816 509.184 460.936 511.552C461.544 512.8 462.04 513.984 462.424 515.104C462.808 516.224 463.064 517.76 463.192 519.712C463.384 522.688 463.48 526.08 463.48 529.888C463.48 533.664 462.568 536.672 460.744 538.912C458.952 541.184 456.312 542.32 452.824 542.32C449.368 542.32 446.488 541.2 444.184 538.96C444.824 538.32 445.512 538 446.248 538C447.016 538 448.056 538.32 449.368 538.96C450.712 539.632 452.136 539.968 453.64 539.968C455.144 539.968 456.392 539.616 457.384 538.912C458.376 538.24 459.112 537.28 459.592 536.032C460.392 533.824 460.792 531.104 460.792 527.872C460.792 527.392 460.744 525.616 460.648 522.544C459.784 525.168 458.552 527.344 456.952 529.072C455.352 530.768 453.544 531.616 451.528 531.616C449.512 531.616 448.024 530.72 447.064 528.928C446.136 527.104 445.672 525.04 445.672 522.736C445.672 520.432 445.992 518.192 446.632 516.016C447.272 513.808 448.312 511.92 449.752 510.352C451.192 508.784 452.904 508 454.888 508ZM449.8 515.296C449.384 516.704 449.08 518.032 448.888 519.28C448.696 520.528 448.6 521.792 448.6 523.072C448.6 524.32 448.856 525.712 449.368 527.248C449.912 528.784 450.696 529.552 451.72 529.552C453.736 529.552 455.528 528.048 457.096 525.04C458.664 522 459.448 518.944 459.448 515.872C459.448 514.816 458.952 513.632 457.96 512.32C457 510.976 455.784 510.304 454.312 510.304C453.288 510.304 452.376 510.784 451.576 511.744C450.808 512.704 450.216 513.888 449.8 515.296ZM470.48 512.08C472.112 509.584 474.464 508.336 477.536 508.336C480.608 508.336 483.056 509.584 484.88 512.08C486.736 514.576 487.664 517.424 487.664 520.624C487.664 523.792 486.656 526.48 484.64 528.688C482.624 530.896 480.064 532 476.96 532C473.856 532 471.6 531.136 470.192 529.408C468.784 527.648 468.08 525.184 468.08 522.016C468.08 517.888 468.88 514.576 470.48 512.08ZM472.592 514.624C472.176 515.872 471.856 517.12 471.632 518.368C471.44 519.616 471.344 520.784 471.344 521.872C471.344 522.928 471.424 523.904 471.584 524.8C471.744 525.664 472.016 526.528 472.4 527.392C472.784 528.224 473.36 528.896 474.128 529.408C474.896 529.888 475.808 530.128 476.864 530.128C479.008 530.128 480.8 529.248 482.24 527.488C483.712 525.728 484.448 523.6 484.448 521.104C484.448 518.608 483.776 516.192 482.432 513.856C481.12 511.488 479.504 510.304 477.584 510.304C476.432 510.304 475.424 510.704 474.56 511.504C473.696 512.304 473.04 513.344 472.592 514.624ZM493.963 503.296C493.963 500.128 493.531 498 492.667 496.912C493.083 496.304 493.803 496 494.827 496C495.019 496 495.227 496.016 495.451 496.048C496.251 496.848 496.651 499.168 496.651 503.008C496.651 505.088 496.555 507.504 496.363 510.256C495.979 515.056 495.787 518.576 495.787 520.816C495.787 526.864 496.955 529.888 499.291 529.888C499.291 529.888 499.883 529.776 501.067 529.552C501.355 529.552 501.595 529.68 501.787 529.936C501.691 531.088 500.747 531.664 498.955 531.664C497.195 531.664 495.835 531.136 494.875 530.08C493.915 528.992 493.307 527.648 493.051 526.048C492.827 524.416 492.715 523.072 492.715 522.016C492.715 520.96 492.731 519.808 492.763 518.56C492.795 517.28 492.939 515.456 493.195 513.088C493.707 508.288 493.963 505.024 493.963 503.296ZM505.448 512.08C507.08 509.584 509.432 508.336 512.504 508.336C515.576 508.336 518.024 509.584 519.848 512.08C521.704 514.576 522.632 517.424 522.632 520.624C522.632 523.792 521.624 526.48 519.608 528.688C517.592 530.896 515.032 532 511.928 532C508.824 532 506.568 531.136 505.16 529.408C503.752 527.648 503.048 525.184 503.048 522.016C503.048 517.888 503.848 514.576 505.448 512.08ZM507.56 514.624C507.144 515.872 506.824 517.12 506.6 518.368C506.408 519.616 506.312 520.784 506.312 521.872C506.312 522.928 506.392 523.904 506.552 524.8C506.712 525.664 506.984 526.528 507.368 527.392C507.752 528.224 508.328 528.896 509.096 529.408C509.864 529.888 510.776 530.128 511.832 530.128C513.976 530.128 515.768 529.248 517.208 527.488C518.68 525.728 519.416 523.6 519.416 521.104C519.416 518.608 518.744 516.192 517.4 513.856C516.088 511.488 514.472 510.304 512.552 510.304C511.4 510.304 510.392 510.704 509.528 511.504C508.664 512.304 508.008 513.344 507.56 514.624ZM535.748 508C538.66 508 540.676 509.184 541.796 511.552C542.404 512.8 542.9 513.984 543.284 515.104C543.668 516.224 543.924 517.76 544.052 519.712C544.244 522.688 544.34 526.08 544.34 529.888C544.34 533.664 543.428 536.672 541.604 538.912C539.812 541.184 537.172 542.32 533.684 542.32C530.228 542.32 527.348 541.2 525.044 538.96C525.684 538.32 526.372 538 527.108 538C527.876 538 528.916 538.32 530.228 538.96C531.572 539.632 532.996 539.968 534.5 539.968C536.004 539.968 537.252 539.616 538.244 538.912C539.236 538.24 539.972 537.28 540.452 536.032C541.252 533.824 541.652 531.104 541.652 527.872C541.652 527.392 541.604 525.616 541.508 522.544C540.644 525.168 539.412 527.344 537.812 529.072C536.212 530.768 534.404 531.616 532.388 531.616C530.372 531.616 528.884 530.72 527.924 528.928C526.996 527.104 526.532 525.04 526.532 522.736C526.532 520.432 526.852 518.192 527.492 516.016C528.132 513.808 529.172 511.92 530.612 510.352C532.052 508.784 533.764 508 535.748 508ZM530.66 515.296C530.244 516.704 529.94 518.032 529.748 519.28C529.556 520.528 529.46 521.792 529.46 523.072C529.46 524.32 529.716 525.712 530.228 527.248C530.772 528.784 531.556 529.552 532.58 529.552C534.596 529.552 536.388 528.048 537.956 525.04C539.524 522 540.308 518.944 540.308 515.872C540.308 514.816 539.812 513.632 538.82 512.32C537.86 510.976 536.644 510.304 535.172 510.304C534.148 510.304 533.236 510.784 532.436 511.744C531.668 512.704 531.076 513.888 530.66 515.296ZM553.115 496.672C553.083 497.408 553.067 498.224 553.067 499.12C553.067 500.016 553.115 500.944 553.211 501.904C552.763 502.416 552.155 502.672 551.387 502.672C550.427 502.672 549.947 501.904 549.947 500.368C549.947 500.304 549.947 500.064 549.947 499.648C549.947 499.232 549.947 498.864 549.947 498.544C549.979 498.192 550.043 497.792 550.139 497.344C550.363 496.576 550.859 496.192 551.627 496.192C552.395 496.192 552.891 496.352 553.115 496.672ZM550.043 520.192C550.043 513.92 550.363 510.304 551.003 509.344C551.227 508.992 551.499 508.816 551.819 508.816C552.139 508.816 552.667 508.992 553.403 509.344C553.243 512.064 553.163 515.024 553.163 518.224C553.163 518.224 553.195 521.76 553.259 528.832C553.259 529.824 553.035 530.528 552.587 530.944C552.171 531.328 551.771 531.52 551.387 531.52C551.035 531.52 550.667 531.424 550.283 531.232C550.123 527.072 550.043 523.392 550.043 520.192ZM574.484 518.176L574.244 523.696C574.244 526.48 574.564 528.352 575.204 529.312C575.588 529.952 576.116 530.272 576.788 530.272C576.98 530.272 577.252 530.224 577.604 530.128C578.276 529.936 578.836 530.032 579.284 530.416C579.06 531.536 577.94 532.096 575.924 532.096C574.548 532.096 573.636 531.52 573.188 530.368C572.836 529.504 572.58 528.432 572.42 527.152C572.26 525.84 572.132 524.944 572.036 524.464C569.956 528.432 567.94 530.848 565.988 531.712C564.996 532.16 563.844 532.384 562.532 532.384C561.22 532.384 560.196 531.76 559.46 530.512C558.756 529.232 558.404 527.376 558.404 524.944C558.404 522.512 558.804 519.968 559.604 517.312C560.404 514.624 561.572 512.368 563.108 510.544C564.644 508.688 566.324 507.76 568.148 507.76C570.772 507.76 572.516 508.848 573.38 511.024C574.116 512.88 574.484 515.264 574.484 518.176ZM562.724 516.64C562.276 518.368 561.94 520.016 561.716 521.584C561.492 523.12 561.38 524.496 561.38 525.712C561.38 526.896 561.62 527.92 562.1 528.784C562.612 529.648 563.268 530.08 564.068 530.08C565.796 530.08 567.46 528.448 569.06 525.184C570.66 521.92 571.46 518.88 571.46 516.064C571.46 514.24 570.98 512.736 570.02 511.552C569.38 510.784 568.532 510.4 567.476 510.4C566.452 510.4 565.508 511.008 564.644 512.224C563.812 513.408 563.172 514.88 562.724 516.64ZM593.099 516.544C593.099 511.552 592.891 507.152 592.475 503.344C592.475 502.352 592.891 501.488 593.723 500.752C594.555 500.016 595.659 499.456 597.035 499.072C599.787 498.368 602.811 498.016 606.107 498.016C610.363 498.016 613.707 498.96 616.139 500.848C618.603 502.704 619.835 505.568 619.835 509.44C619.835 513.312 618.267 516.416 615.131 518.752C611.995 521.088 608.171 522.256 603.659 522.256C601.355 522.256 598.939 521.776 596.411 520.816C596.251 522.352 596.171 524.432 596.171 527.056L596.219 529.408C596.219 530.176 596.203 530.976 596.171 531.808C596.011 532.032 595.835 532.192 595.643 532.288C595.451 532.384 595.307 532.448 595.211 532.48C595.147 532.544 595.035 532.592 594.875 532.624C594.715 532.656 594.603 532.672 594.539 532.672C594.347 532.736 594.123 532.768 593.867 532.768H593.051C592.987 530.368 592.955 528.208 592.955 526.288L593.099 516.544ZM596.315 517.36C598.651 518.928 601.451 519.712 604.715 519.712C607.979 519.68 610.731 518.672 612.971 516.688C615.211 514.672 616.331 512.208 616.331 509.296C616.331 506.384 615.179 504.208 612.875 502.768C610.571 501.328 607.803 500.608 604.571 500.608C601.371 500.608 598.539 501.344 596.075 502.816C596.235 504.896 596.315 509.744 596.315 517.36ZM625.561 522.256C625.497 522.896 625.465 523.328 625.465 523.552C625.465 525.472 626.041 526.96 627.193 528.016C628.377 529.072 629.769 529.6 631.369 529.6C632.969 529.6 634.265 529.376 635.257 528.928C636.281 528.48 637.017 528 637.465 527.488C638.617 526.048 639.673 525.328 640.633 525.328C640.985 525.328 641.401 525.424 641.881 525.616C641.561 527.184 640.345 528.624 638.233 529.936C636.153 531.216 633.529 531.856 630.361 531.856C628.121 531.856 626.185 531.152 624.553 529.744C622.953 528.304 622.153 526.352 622.153 523.888C622.153 521.424 622.633 519.04 623.593 516.736C624.585 514.4 625.993 512.416 627.817 510.784C629.673 509.12 631.545 508.288 633.433 508.288C635.353 508.288 636.889 508.688 638.041 509.488C639.225 510.256 639.817 511.392 639.817 512.896C639.817 515.68 638.569 517.984 636.073 519.808C633.609 521.6 630.985 522.496 628.201 522.496C627.465 522.496 626.585 522.416 625.561 522.256ZM629.209 520.672C630.713 520.672 632.057 520.192 633.241 519.232C634.425 518.272 635.257 517.264 635.737 516.208C636.249 515.152 636.505 514.192 636.505 513.328C636.505 512.464 636.169 511.712 635.497 511.072C634.825 510.4 634.041 510.064 633.145 510.064C631.545 510.064 630.057 511.168 628.681 513.376C627.337 515.584 626.377 517.872 625.801 520.24C627.209 520.528 628.345 520.672 629.209 520.672ZM663.849 493.552C662.633 504.56 662.025 512.416 662.025 517.12C662.025 521.792 662.457 526.464 663.321 531.136C662.681 531.776 662.121 532.096 661.641 532.096C661.161 532.096 660.761 532.032 660.441 531.904C659.769 529.536 659.369 526.96 659.241 524.176C658.473 525.392 657.897 526.256 657.513 526.768C657.161 527.28 656.537 528.032 655.641 529.024C654.009 530.944 652.073 531.904 649.833 531.904C648.137 531.904 646.905 531.12 646.137 529.552C645.401 527.952 645.033 525.92 645.033 523.456C645.033 520.96 645.305 518.592 645.849 516.352C646.425 514.08 647.401 512.128 648.777 510.496C650.153 508.832 651.849 508 653.865 508C655.081 508 656.201 508.256 657.225 508.768C658.249 509.28 658.953 509.968 659.337 510.832C659.401 509.968 659.465 508.64 659.529 506.848C659.593 505.056 659.657 503.472 659.721 502.096C659.817 500.688 659.961 499.264 660.153 497.824C660.505 494.752 661.289 493.216 662.505 493.216C662.921 493.216 663.369 493.328 663.849 493.552ZM658.233 512.56C657.849 511.856 657.321 511.344 656.649 511.024C655.977 510.672 655.081 510.496 653.961 510.496C652.873 510.496 651.849 511.12 650.889 512.368C649.001 514.832 648.057 518.4 648.057 523.072C648.057 524.576 648.297 526.08 648.777 527.584C649.257 529.056 649.961 529.792 650.889 529.792C652.233 529.792 653.545 528.912 654.825 527.152C656.105 525.392 657.097 523.376 657.801 521.104C658.505 518.8 658.857 516.736 658.857 514.912C658.857 514.048 658.649 513.264 658.233 512.56ZM671.896 496.672C671.864 497.408 671.848 498.224 671.848 499.12C671.848 500.016 671.896 500.944 671.992 501.904C671.544 502.416 670.936 502.672 670.168 502.672C669.208 502.672 668.728 501.904 668.728 500.368C668.728 500.304 668.728 500.064 668.728 499.648C668.728 499.232 668.728 498.864 668.728 498.544C668.76 498.192 668.824 497.792 668.92 497.344C669.144 496.576 669.64 496.192 670.408 496.192C671.176 496.192 671.672 496.352 671.896 496.672ZM668.824 520.192C668.824 513.92 669.144 510.304 669.784 509.344C670.008 508.992 670.28 508.816 670.6 508.816C670.92 508.816 671.448 508.992 672.184 509.344C672.024 512.064 671.944 515.024 671.944 518.224C671.944 518.224 671.976 521.76 672.04 528.832C672.04 529.824 671.816 530.528 671.368 530.944C670.952 531.328 670.552 531.52 670.168 531.52C669.816 531.52 669.448 531.424 669.064 531.232C668.904 527.072 668.824 523.392 668.824 520.192ZM693.266 518.176L693.026 523.696C693.026 526.48 693.346 528.352 693.986 529.312C694.37 529.952 694.898 530.272 695.57 530.272C695.762 530.272 696.034 530.224 696.386 530.128C697.058 529.936 697.618 530.032 698.066 530.416C697.842 531.536 696.722 532.096 694.706 532.096C693.33 532.096 692.418 531.52 691.97 530.368C691.618 529.504 691.362 528.432 691.202 527.152C691.042 525.84 690.914 524.944 690.818 524.464C688.738 528.432 686.722 530.848 684.77 531.712C683.778 532.16 682.626 532.384 681.314 532.384C680.002 532.384 678.978 531.76 678.242 530.512C677.538 529.232 677.186 527.376 677.186 524.944C677.186 522.512 677.586 519.968 678.386 517.312C679.186 514.624 680.354 512.368 681.89 510.544C683.426 508.688 685.106 507.76 686.93 507.76C689.554 507.76 691.298 508.848 692.162 511.024C692.898 512.88 693.266 515.264 693.266 518.176ZM681.506 516.64C681.058 518.368 680.722 520.016 680.498 521.584C680.274 523.12 680.162 524.496 680.162 525.712C680.162 526.896 680.402 527.92 680.882 528.784C681.394 529.648 682.05 530.08 682.85 530.08C684.578 530.08 686.242 528.448 687.842 525.184C689.442 521.92 690.242 518.88 690.242 516.064C690.242 514.24 689.762 512.736 688.802 511.552C688.162 510.784 687.314 510.4 686.258 510.4C685.234 510.4 684.29 511.008 683.426 512.224C682.594 513.408 681.954 514.88 681.506 516.64ZM680.738 504.688C681.826 503.856 683.442 502.768 685.586 501.424C687.762 500.048 689.074 499.216 689.522 498.928C689.97 498.608 690.402 498.448 690.818 498.448C691.266 498.448 691.762 498.544 692.306 498.736C692.882 498.896 693.17 499.104 693.17 499.36C693.17 499.552 692.978 499.776 692.594 500.032C692.242 500.288 690.978 501.12 688.802 502.528C686.626 503.904 684.994 505.008 683.906 505.84C683.65 506.032 683.314 506.128 682.898 506.128C682.482 506.128 681.97 506.032 681.362 505.84C680.754 505.648 680.45 505.424 680.45 505.168C680.45 505.04 680.546 504.88 680.738 504.688ZM699.708 511.888C698.268 511.888 697.292 511.536 696.78 510.832C696.78 510.32 696.988 509.92 697.404 509.632C697.852 509.344 698.332 509.168 698.844 509.104C699.356 509.008 700.188 508.928 701.34 508.864C701.436 508 701.484 506.896 701.484 505.552C701.516 504.176 701.548 503.008 701.58 502.048C701.676 499.52 702.06 497.968 702.732 497.392C703.02 497.136 703.324 497.008 703.644 497.008C703.996 497.008 704.3 497.04 704.556 497.104C704.652 499.408 704.7 500.8 704.7 501.28L704.412 508.48C704.476 508.512 704.652 508.528 704.94 508.528L708.396 508.384C710.892 508.384 712.14 508.768 712.14 509.536C712.14 510.624 711.692 511.264 710.796 511.456C710.38 511.552 709.884 511.6 709.308 511.6C708.764 511.6 708.044 511.536 707.148 511.408C706.284 511.248 705.66 511.168 705.276 511.168C704.892 511.168 704.636 511.184 704.508 511.216C704.412 512.144 704.364 513.072 704.364 514C704.364 514.896 704.38 516.032 704.412 517.408C704.476 518.752 704.604 520.368 704.796 522.256C705.02 524.144 705.484 525.776 706.188 527.152C706.892 528.496 707.788 529.168 708.876 529.168C709.42 529.168 710.06 528.96 710.796 528.544C711.532 528.096 712.092 527.872 712.476 527.872C712.892 527.872 713.244 527.968 713.532 528.16C713.852 528.32 714.012 528.512 714.012 528.736C714.012 529.408 713.324 530.064 711.948 530.704C710.604 531.312 709.452 531.616 708.492 531.616C704.972 531.616 702.78 528.288 701.916 521.632C701.66 519.712 701.468 516.416 701.34 511.744C700.828 511.84 700.284 511.888 699.708 511.888ZM721.567 527.296L721.711 530.032C721.711 530.736 721.503 531.232 721.087 531.52C720.703 531.776 720.303 531.904 719.887 531.904C719.503 531.904 719.103 531.84 718.687 531.712C717.983 528 717.439 523.376 717.055 517.84C716.703 512.304 716.495 509.168 716.431 508.432C716.911 507.984 717.407 507.76 717.919 507.76C718.463 507.76 718.943 507.824 719.359 507.952C719.487 508.88 719.583 510.928 719.647 514.096C719.711 517.264 719.791 519.248 719.887 520.048C720.335 517.36 721.135 514.848 722.287 512.512C722.927 511.2 723.759 510.16 724.783 509.392C725.839 508.592 726.959 508.192 728.143 508.192C729.359 508.192 730.463 508.736 731.455 509.824C732.479 510.88 732.991 511.84 732.991 512.704C732.991 513.024 732.799 513.28 732.415 513.472C732.031 513.632 731.599 513.712 731.119 513.712C730.671 513.712 730.319 513.536 730.063 513.184C729.807 512.832 729.631 512.448 729.535 512.032C729.439 511.584 729.231 511.184 728.911 510.832C728.591 510.48 728.159 510.304 727.615 510.304C726.175 510.304 724.943 511.6 723.919 514.192C722.351 518.064 721.567 522.432 721.567 527.296ZM739.396 496.672C739.364 497.408 739.348 498.224 739.348 499.12C739.348 500.016 739.396 500.944 739.492 501.904C739.044 502.416 738.436 502.672 737.668 502.672C736.708 502.672 736.228 501.904 736.228 500.368C736.228 500.304 736.228 500.064 736.228 499.648C736.228 499.232 736.228 498.864 736.228 498.544C736.26 498.192 736.324 497.792 736.42 497.344C736.644 496.576 737.14 496.192 737.908 496.192C738.676 496.192 739.172 496.352 739.396 496.672ZM736.324 520.192C736.324 513.92 736.644 510.304 737.284 509.344C737.508 508.992 737.78 508.816 738.1 508.816C738.42 508.816 738.948 508.992 739.684 509.344C739.524 512.064 739.444 515.024 739.444 518.224C739.444 518.224 739.476 521.76 739.54 528.832C739.54 529.824 739.316 530.528 738.868 530.944C738.452 531.328 738.052 531.52 737.668 531.52C737.316 531.52 736.948 531.424 736.564 531.232C736.404 527.072 736.324 523.392 736.324 520.192ZM761.726 514C761.118 514.608 760.51 514.912 759.902 514.912C759.294 514.912 758.798 514.656 758.414 514.144C758.062 513.6 757.774 513.024 757.55 512.416C757.326 511.776 756.91 511.2 756.302 510.688C755.726 510.144 754.99 509.872 754.094 509.872C752.846 510 751.71 510.896 750.686 512.56C749.662 514.192 748.91 516 748.43 517.984C747.95 519.968 747.71 521.84 747.71 523.6C747.71 525.328 748.19 526.832 749.15 528.112C750.142 529.36 751.47 529.984 753.134 529.984C755.054 529.984 756.59 529.312 757.742 527.968C758.222 527.392 758.67 526.816 759.086 526.24C760.11 524.896 761.038 524.224 761.87 524.224C762.158 524.224 762.574 524.304 763.118 524.464C763.118 525.648 762.03 527.216 759.854 529.168C757.71 531.088 755.374 532.048 752.846 532.048C750.318 532.048 748.318 531.248 746.846 529.648C745.406 528.016 744.686 525.92 744.686 523.36C744.686 520.064 745.486 516.768 747.086 513.472C747.886 511.872 748.974 510.56 750.35 509.536C751.726 508.48 753.262 507.952 754.958 507.952C756.654 507.952 758.014 508.528 759.038 509.68C760.094 510.8 760.99 512.24 761.726 514ZM782.188 518.176L781.948 523.696C781.948 526.48 782.268 528.352 782.908 529.312C783.292 529.952 783.82 530.272 784.492 530.272C784.684 530.272 784.956 530.224 785.308 530.128C785.98 529.936 786.54 530.032 786.988 530.416C786.764 531.536 785.644 532.096 783.628 532.096C782.252 532.096 781.34 531.52 780.892 530.368C780.54 529.504 780.284 528.432 780.124 527.152C779.964 525.84 779.836 524.944 779.74 524.464C777.66 528.432 775.644 530.848 773.692 531.712C772.7 532.16 771.548 532.384 770.236 532.384C768.924 532.384 767.9 531.76 767.164 530.512C766.46 529.232 766.108 527.376 766.108 524.944C766.108 522.512 766.508 519.968 767.308 517.312C768.108 514.624 769.276 512.368 770.812 510.544C772.348 508.688 774.028 507.76 775.852 507.76C778.476 507.76 780.22 508.848 781.084 511.024C781.82 512.88 782.188 515.264 782.188 518.176ZM770.428 516.64C769.98 518.368 769.644 520.016 769.42 521.584C769.196 523.12 769.084 524.496 769.084 525.712C769.084 526.896 769.324 527.92 769.804 528.784C770.316 529.648 770.972 530.08 771.772 530.08C773.5 530.08 775.164 528.448 776.764 525.184C778.364 521.92 779.164 518.88 779.164 516.064C779.164 514.24 778.684 512.736 777.724 511.552C777.084 510.784 776.236 510.4 775.18 510.4C774.156 510.4 773.212 511.008 772.348 512.224C771.516 513.408 770.876 514.88 770.428 516.64Z" fill="black"/>
<g filter="url(#filter0_d_43_164)">
<path d="M189.074 305.806L190.795 147.743L316.256 99.1514L316.355 254.024L189.074 305.806Z" fill="#3376C6"/>
<path d="M175.307 146.386L50.692 94.3102L47.6039 251.918L172.902 304.222L175.307 146.386Z" fill="#3376C6"/>
<path d="M66.6275 82.9123L185.94 34.5524L303.266 85.7222L182.814 132.944L66.6275 82.9123Z" fill="#3376C6"/>
</g>
<g filter="url(#filter1_d_43_164)">
<path d="M674.86 100.49L794.868 47.1746L918.042 93.3946L798.264 146.017L674.86 100.49Z" fill="#36AE82"/>
<path d="M789.971 159.426L665.181 113.439L663.359 269.798L792.082 320.166L789.971 159.426Z" fill="#36AE82"/>
<path d="M930.535 106.769L807.295 160.552L810.325 318.519L934.952 265.196L930.535 106.769Z" fill="#36AE82"/>
</g>
<g filter="url(#filter2_d_43_164)">
<path d="M598 262L388 261.489V78H597.431L598 262Z" fill="#E94FAB"/>
<path d="M598 59H387L407 6.5H573.5L598 59Z" fill="#E94FAB"/>
</g>
<path d="M250.139 151.623C229.109 154.659 214.46 174.188 217.487 195.157C217.819 197.453 219.963 199.05 222.266 198.718C224.569 198.385 226.174 196.247 225.842 193.95C223.478 177.575 234.917 162.323 251.341 159.952C267.766 157.581 283.05 168.975 285.414 185.35C286.983 196.216 283.046 201.336 278.482 207.265C273.527 213.708 267.91 221.012 269.952 235.153C271.039 242.688 265.775 249.706 258.218 250.797C250.662 251.888 243.629 246.645 242.541 239.11C242.209 236.814 240.066 235.216 237.762 235.548C235.459 235.881 233.854 238.019 234.186 240.316C235.937 252.444 247.257 260.883 259.421 259.126C271.584 257.37 280.057 246.074 278.307 233.947C276.771 223.313 280.669 218.248 285.182 212.38C290.18 205.882 295.845 198.519 293.769 184.144C290.742 163.175 271.17 148.587 250.139 151.623Z" fill="white"/>
<path d="M457.058 211.237C451.267 198.489 459.471 188.798 463.331 185.162C465.71 183.486 470.956 174.925 472.5 170.676L499.04 117.077C499.684 115.79 499.716 112.732 496.627 110.8C493.539 108.869 490.32 110.8 489.389 112.731L459.471 172.607C458.472 174.794 457.076 176.545 455.094 178.174C441.582 189.28 443.03 211.237 451.267 221.86C458.615 231.336 478.858 232.397 485.569 230.871C500.211 225.987 504.786 226.292 516.377 231.481C525.224 231.481 541.776 227.823 541.39 208.894C541.004 189.966 526.25 185.162 518.207 185.162C514.472 185.576 513.798 188.429 513.648 190.473C513.327 194.854 518.328 195.059 521.258 195.77C530.137 197.701 532.111 205.947 531.629 209.81C529.312 222.172 519.983 221.538 515.157 219.445C504.058 213.651 491.343 217.031 485.874 219.445C478.314 222.021 462.849 223.984 457.058 211.237Z" fill="white"/>
<path d="M741.358 210.206C756.496 204.426 757.001 191.321 755.361 185.491C751.576 177.126 743.523 171.318 745.521 168.001C746.504 165.326 748.549 161.537 744.764 159.636C741.414 157.953 739.087 160.016 738.33 161.157C736.438 163.058 732.275 170.662 738.33 178.267C743.25 183.97 753.468 193.476 738.33 201.46L712.217 212.487C703.513 216.289 699.728 220.852 696.701 227.316C693.294 234.92 695.365 244.525 699.728 264.198C700.107 265.465 701.62 268 704.648 268C707.676 268 708.937 265.972 709.189 264.958C709.189 257.354 707.002 251.559 704.648 240.624C703.134 235.681 704.269 223.894 720.164 218.571C736.211 212.791 741.358 210.206 741.358 210.206Z" fill="white"/>
<defs>
<filter id="filter0_d_43_164" x="43.6039" y="34.5525" width="276.751" height="279.253" filterUnits="userSpaceOnUse" color-interpolation-filters="sRGB">
<feFlood flood-opacity="0" result="BackgroundImageFix"/>
<feColorMatrix in="SourceAlpha" type="matrix" values="0 0 0 0 0 0 0 0 0 0 0 0 0 0 0 0 0 0 127 0" result="hardAlpha"/>
<feOffset dy="4"/>
<feGaussianBlur stdDeviation="2"/>
<feColorMatrix type="matrix" values="0 0 0 0 0 0 0 0 0 0 0 0 0 0 0 0 0 0 0.25 0"/>
<feBlend mode="normal" in2="BackgroundImageFix" result="effect1_dropShadow_43_164"/>
<feBlend mode="normal" in="SourceGraphic" in2="effect1_dropShadow_43_164" result="shape"/>
</filter>
<filter id="filter1_d_43_164" x="659.359" y="47.1746" width="279.593" height="280.991" filterUnits="userSpaceOnUse" color-interpolation-filters="sRGB">
<feFlood flood-opacity="0" result="BackgroundImageFix"/>
<feColorMatrix in="SourceAlpha" type="matrix" values="0 0 0 0 0 0 0 0 0 0 0 0 0 0 0 0 0 0 127 0" result="hardAlpha"/>
<feOffset dy="4"/>
<feGaussianBlur stdDeviation="2"/>
<feColorMatrix type="matrix" values="0 0 0 0 0 0 0 0 0 0 0 0 0 0 0 0 0 0 0.25 0"/>
<feBlend mode="normal" in2="BackgroundImageFix" result="effect1_dropShadow_43_164"/>
<feBlend mode="normal" in="SourceGraphic" in2="effect1_dropShadow_43_164" result="shape"/>
</filter>
<filter id="filter2_d_43_164" x="383" y="6.5" width="219" height="263.5" filterUnits="userSpaceOnUse" color-interpolation-filters="sRGB">
<feFlood flood-opacity="0" result="BackgroundImageFix"/>
<feColorMatrix in="SourceAlpha" type="matrix" values="0 0 0 0 0 0 0 0 0 0 0 0 0 0 0 0 0 0 127 0" result="hardAlpha"/>
<feOffset dy="4"/>
<feGaussianBlur stdDeviation="2"/>
<feColorMatrix type="matrix" values="0 0 0 0 0 0 0 0 0 0 0 0 0 0 0 0 0 0 0.25 0"/>
<feBlend mode="normal" in2="BackgroundImageFix" result="effect1_dropShadow_43_164"/>
<feBlend mode="normal" in="SourceGraphic" in2="effect1_dropShadow_43_164" result="shape"/>
</filter>
</defs>
</svg>
