<svg width="136" height="114" viewBox="0 0 136 114" fill="none" xmlns="http://www.w3.org/2000/svg">
<g filter="url(#filter0_d_649_234)">
<path d="M71.1964 70.9127L90.9688 52.9243L117.728 53.965L97.956 71.8047L71.1964 70.9127Z" fill="#36AE82"/>
<path d="M97.2127 74.9266L70.1558 74.0347L79.8189 104.362L107.917 105.849L97.2127 74.9266Z" fill="#36AE82"/>
<path d="M120.999 55.7489L100.632 74.0347L111.336 104.362L132 86.0765L120.999 55.7489Z" fill="#36AE82"/>
</g>
<path d="M119.267 79.2813C121.292 76.6795 119.999 74.3576 119.1 73.5219C117.561 72.4743 115.549 72.3208 115.547 71.5353C115.437 70.9683 115.393 70.0961 114.535 70.1674C113.775 70.2305 113.588 70.8338 113.576 71.1113C113.447 71.6405 113.524 73.3973 115.378 74.073C116.834 74.5398 119.612 75.1042 117.82 78.0878L114.44 82.7589C113.326 84.3379 113.149 85.528 113.303 86.9672C113.511 88.6439 114.882 90.0874 117.713 93.0311C117.912 93.2104 118.442 93.4891 118.969 93.1688C119.495 92.8485 119.501 92.364 119.438 92.1618C118.637 90.8455 117.647 90.0738 116.086 88.43C115.302 87.7346 114.259 85.5742 116.462 82.9712C118.645 80.2733 119.267 79.2813 119.267 79.2813Z" fill="white"/>
<g filter="url(#filter1_d_649_234)">
<path d="M57.4665 52.9245L69.6207 22.616H97.7753L86.0827 52.9245H57.4665Z" fill="#E94FAB"/>
<path d="M66.3898 21.6929L46.0816 0.923102L33.312 31.2316L54.5836 51.2961L66.3898 21.6929Z" fill="#E94FAB"/>
<path d="M69.0053 19.0774L50.2355 0H77.3132L96.5445 19.0774H69.0053Z" fill="#E94FAB"/>
</g>
<path d="M70.5664 44.7641C69.6471 42.5067 71.1421 40.8781 71.8392 40.2726C72.2648 39.9976 73.2372 38.5451 73.5354 37.8168L78.5266 28.6791C78.6475 28.4596 78.6743 27.9279 78.1502 27.5705C77.6262 27.2132 77.0525 27.5267 76.8771 27.8562L71.2545 38.0622C71.0654 38.4357 70.8104 38.7305 70.4541 39.0001C68.0254 40.8378 68.1249 44.6666 69.4849 46.5715C70.6979 48.2706 74.2136 48.5958 75.3921 48.377C77.9742 47.6293 78.7684 47.7142 80.7496 48.6972C82.2893 48.7587 85.1954 48.2373 85.2596 44.9425C85.3238 41.6477 82.7894 40.7097 81.3897 40.6538C80.7368 40.6998 80.5997 41.1914 80.5594 41.5459C80.4731 42.3056 81.342 42.3761 81.847 42.5199C83.3788 42.9175 83.6652 44.3655 83.5544 45.034C83.0655 47.1678 81.4462 46.9928 80.6209 46.5954C78.7295 45.5105 76.4931 46.01 75.5245 46.3919C74.1909 46.7873 71.4857 47.0214 70.5664 44.7641Z" fill="white"/>
<g filter="url(#filter2_d_649_234)">
<path d="M44.3165 105.116L34.4939 74.4753L55.6051 57.0293L65.5742 86.9367L44.3165 105.116Z" fill="#3376C6"/>
<path d="M31.4152 75.2083L4 73.1558L13.5293 103.796L41.0911 105.849L31.4152 75.2083Z" fill="#3376C6"/>
<path d="M6.34568 69.9305L26.284 52.9243L52.2331 55.27L32.0016 72.1296L6.34568 69.9305Z" fill="#3376C6"/>
</g>
<path d="M45.1542 71.5918C41.3859 73.7066 40.0403 78.493 42.1551 82.2614C42.3867 82.6741 42.911 82.8213 43.3237 82.5897C43.7363 82.3581 43.8839 81.8341 43.6522 81.4213C42.0006 78.4783 43.0513 74.7403 45.9942 73.0888C48.9372 71.4372 52.675 72.4879 54.3266 75.4309C55.4225 77.3837 55.0513 78.6456 54.6208 80.1073C54.1536 81.6955 53.624 83.4956 55.0503 86.0371C55.8103 87.3913 55.3267 89.1114 53.9726 89.8713C52.6186 90.6311 50.8987 90.1476 50.1388 88.7934C49.9072 88.3807 49.383 88.2333 48.9701 88.4649C48.5575 88.6965 48.41 89.2207 48.6417 89.6336C49.8648 91.8131 52.6332 92.5913 54.8127 91.3682C56.9922 90.145 57.7705 87.3765 56.5474 85.1969C55.4749 83.2858 55.8425 82.0371 56.2681 80.5909C56.7393 78.9892 57.2735 77.1742 55.8236 74.5907C53.7088 70.8223 48.9226 69.477 45.1542 71.5918Z" fill="white"/>
<defs>
<filter id="filter0_d_649_234" x="66.1558" y="52.9243" width="69.8445" height="60.9243" filterUnits="userSpaceOnUse" color-interpolation-filters="sRGB">
<feFlood flood-opacity="0" result="BackgroundImageFix"/>
<feColorMatrix in="SourceAlpha" type="matrix" values="0 0 0 0 0 0 0 0 0 0 0 0 0 0 0 0 0 0 127 0" result="hardAlpha"/>
<feOffset dy="4"/>
<feGaussianBlur stdDeviation="2"/>
<feColorMatrix type="matrix" values="0 0 0 0 0 0 0 0 0 0 0 0 0 0 0 0 0 0 0.25 0"/>
<feBlend mode="normal" in2="BackgroundImageFix" result="effect1_dropShadow_649_234"/>
<feBlend mode="normal" in="SourceGraphic" in2="effect1_dropShadow_649_234" result="shape"/>
</filter>
<filter id="filter1_d_649_234" x="29.312" y="0" width="72.4634" height="60.9243" filterUnits="userSpaceOnUse" color-interpolation-filters="sRGB">
<feFlood flood-opacity="0" result="BackgroundImageFix"/>
<feColorMatrix in="SourceAlpha" type="matrix" values="0 0 0 0 0 0 0 0 0 0 0 0 0 0 0 0 0 0 127 0" result="hardAlpha"/>
<feOffset dy="4"/>
<feGaussianBlur stdDeviation="2"/>
<feColorMatrix type="matrix" values="0 0 0 0 0 0 0 0 0 0 0 0 0 0 0 0 0 0 0.25 0"/>
<feBlend mode="normal" in2="BackgroundImageFix" result="effect1_dropShadow_649_234"/>
<feBlend mode="normal" in="SourceGraphic" in2="effect1_dropShadow_649_234" result="shape"/>
</filter>
<filter id="filter2_d_649_234" x="0" y="52.9243" width="69.5742" height="60.9243" filterUnits="userSpaceOnUse" color-interpolation-filters="sRGB">
<feFlood flood-opacity="0" result="BackgroundImageFix"/>
<feColorMatrix in="SourceAlpha" type="matrix" values="0 0 0 0 0 0 0 0 0 0 0 0 0 0 0 0 0 0 127 0" result="hardAlpha"/>
<feOffset dy="4"/>
<feGaussianBlur stdDeviation="2"/>
<feColorMatrix type="matrix" values="0 0 0 0 0 0 0 0 0 0 0 0 0 0 0 0 0 0 0.25 0"/>
<feBlend mode="normal" in2="BackgroundImageFix" result="effect1_dropShadow_649_234"/>
<feBlend mode="normal" in="SourceGraphic" in2="effect1_dropShadow_649_234" result="shape"/>
</filter>
</defs>
</svg>
