<svg viewBox="0 0 512 512" fill="none" xmlns="http://www.w3.org/2000/svg">
<g filter="url(#filter0_d_660_359)">
<path d="M273.319 319.26L347.466 251.803L447.814 255.706L373.668 322.605L273.319 319.26Z" fill="#36AE82"/>
<path d="M370.88 334.312L269.417 330.967L305.654 444.695L411.02 450.27L370.88 334.312Z" fill="#36AE82"/>
<path d="M460.079 262.396L383.702 330.967L423.842 444.695L501.333 376.124L460.079 262.396Z" fill="#36AE82"/>
</g>
<path d="M453.586 350.642C461.176 340.885 456.33 332.178 452.959 329.044C447.188 325.115 439.642 324.54 439.636 321.594C439.221 319.468 439.058 316.197 435.839 316.465C432.99 316.701 432.287 318.963 432.244 320.004C431.761 321.989 432.048 328.577 439 331.111C444.46 332.861 454.878 334.978 448.158 346.166L435.482 363.683C431.307 369.604 430.64 374.067 431.218 379.464C431.999 385.751 437.142 391.165 447.756 402.203C448.503 402.876 450.491 403.921 452.465 402.72C454.44 401.519 454.462 399.702 454.226 398.944C451.223 394.007 447.509 391.114 441.656 384.949C438.717 382.341 434.803 374.24 443.067 364.479C451.25 354.362 453.586 350.642 453.586 350.642Z" fill="white"/>
<g filter="url(#filter1_d_660_359)">
<path d="M221.832 251.8L267.41 138.143H372.99L329.143 251.8H221.832Z" fill="#E94FAB"/>
<path d="M255.294 134.682L179.139 56.7951L131.253 170.452L211.021 245.694L255.294 134.682Z" fill="#E94FAB"/>
<path d="M265.102 124.874L194.716 53.3335H296.257L368.374 124.874H265.102Z" fill="#E94FAB"/>
</g>
<path d="M270.956 221.199C267.509 212.734 273.115 206.627 275.729 204.356C277.325 203.325 280.972 197.878 282.09 195.147L300.807 160.881C301.261 160.058 301.361 158.064 299.396 156.724C297.431 155.383 295.279 156.559 294.622 157.795L273.537 196.067C272.828 197.468 271.871 198.573 270.535 199.584C261.428 206.476 261.801 220.834 266.901 227.977C271.45 234.349 284.633 235.568 289.053 234.748C298.736 231.944 301.714 232.262 309.144 235.949C314.917 236.179 325.815 234.224 326.056 221.869C326.297 209.513 316.793 205.995 311.544 205.786C309.095 205.958 308.581 207.802 308.43 209.131C308.106 211.98 311.365 212.244 313.259 212.784C319.003 214.275 320.077 219.705 319.662 222.212C317.828 230.214 311.756 229.557 308.661 228.067C301.568 223.998 293.181 225.872 289.549 227.304C284.548 228.787 274.404 229.664 270.956 221.199Z" fill="white"/>
<g filter="url(#filter2_d_660_359)">
<path d="M172.52 447.521L135.685 332.619L214.852 267.197L252.237 379.35L172.52 447.521Z" fill="#3376C6"/>
<path d="M124.14 335.368L21.3333 327.671L57.0683 442.573L160.425 450.27L124.14 335.368Z" fill="#3376C6"/>
<path d="M30.1296 315.577L104.898 251.803L202.208 260.6L126.339 323.823L30.1296 315.577Z" fill="#3376C6"/>
</g>
<path d="M175.662 321.807C161.531 329.738 156.485 347.686 164.415 361.818C165.284 363.366 167.25 363.918 168.797 363.049C170.345 362.181 170.898 360.216 170.029 358.668C163.836 347.631 167.776 333.614 178.812 327.421C189.848 321.227 203.865 325.167 210.058 336.204C214.168 343.527 212.776 348.259 211.162 353.74C209.41 359.696 207.424 366.446 212.772 375.977C215.622 381.055 213.809 387.505 208.731 390.355C203.653 393.205 197.204 391.391 194.354 386.313C193.485 384.766 191.52 384.213 189.972 385.081C188.424 385.95 187.871 387.916 188.74 389.464C193.327 397.637 203.708 400.555 211.881 395.968C220.055 391.382 222.973 380.999 218.386 372.826C214.364 365.659 215.743 360.977 217.339 355.554C219.106 349.547 221.109 342.741 215.672 333.053C207.742 318.921 189.793 313.877 175.662 321.807Z" fill="white"/>
<defs>
<filter id="filter0_d_660_359" x="265.417" y="251.803" width="239.916" height="206.467" filterUnits="userSpaceOnUse" color-interpolation-filters="sRGB">
<feFlood flood-opacity="0" result="BackgroundImageFix"/>
<feColorMatrix in="SourceAlpha" type="matrix" values="0 0 0 0 0 0 0 0 0 0 0 0 0 0 0 0 0 0 127 0" result="hardAlpha"/>
<feOffset dy="4"/>
<feGaussianBlur stdDeviation="2"/>
<feColorMatrix type="matrix" values="0 0 0 0 0 0 0 0 0 0 0 0 0 0 0 0 0 0 0.25 0"/>
<feBlend mode="normal" in2="BackgroundImageFix" result="effect1_dropShadow_660_359"/>
<feBlend mode="normal" in="SourceGraphic" in2="effect1_dropShadow_660_359" result="shape"/>
</filter>
<filter id="filter1_d_660_359" x="127.253" y="53.3335" width="249.737" height="206.467" filterUnits="userSpaceOnUse" color-interpolation-filters="sRGB">
<feFlood flood-opacity="0" result="BackgroundImageFix"/>
<feColorMatrix in="SourceAlpha" type="matrix" values="0 0 0 0 0 0 0 0 0 0 0 0 0 0 0 0 0 0 127 0" result="hardAlpha"/>
<feOffset dy="4"/>
<feGaussianBlur stdDeviation="2"/>
<feColorMatrix type="matrix" values="0 0 0 0 0 0 0 0 0 0 0 0 0 0 0 0 0 0 0.25 0"/>
<feBlend mode="normal" in2="BackgroundImageFix" result="effect1_dropShadow_660_359"/>
<feBlend mode="normal" in="SourceGraphic" in2="effect1_dropShadow_660_359" result="shape"/>
</filter>
<filter id="filter2_d_660_359" x="17.3333" y="251.803" width="238.903" height="206.467" filterUnits="userSpaceOnUse" color-interpolation-filters="sRGB">
<feFlood flood-opacity="0" result="BackgroundImageFix"/>
<feColorMatrix in="SourceAlpha" type="matrix" values="0 0 0 0 0 0 0 0 0 0 0 0 0 0 0 0 0 0 127 0" result="hardAlpha"/>
<feOffset dy="4"/>
<feGaussianBlur stdDeviation="2"/>
<feColorMatrix type="matrix" values="0 0 0 0 0 0 0 0 0 0 0 0 0 0 0 0 0 0 0.25 0"/>
<feBlend mode="normal" in2="BackgroundImageFix" result="effect1_dropShadow_660_359"/>
<feBlend mode="normal" in="SourceGraphic" in2="effect1_dropShadow_660_359" result="shape"/>
</filter>
</defs>
</svg>
