<svg width="53" height="51" viewBox="0 0 53 51" fill="none" xmlns="http://www.w3.org/2000/svg">
<g filter="url(#filter0_d_660_237)">
<path d="M27.6237 29.9305L34.5749 23.6064L43.9826 23.9723L37.0313 30.2441L27.6237 29.9305Z" fill="#36AE82"/>
<path d="M36.77 31.3416L27.2578 31.028L30.655 41.6901L40.5331 42.2127L36.77 31.3416Z" fill="#36AE82"/>
<path d="M45.1324 24.5995L37.9721 31.028L41.7352 41.6901L49 35.2615L45.1324 24.5995Z" fill="#36AE82"/>
</g>
<path d="M44.5238 32.8725C45.2354 31.9578 44.7811 31.1415 44.465 30.8477C43.924 30.4794 43.2166 30.4255 43.2159 30.1493C43.1771 29.9499 43.1618 29.6433 42.86 29.6684C42.5929 29.6906 42.527 29.9026 42.523 30.0002C42.4777 30.1863 42.5046 30.8039 43.1563 31.0414C43.6683 31.2055 44.6449 31.404 44.0149 32.4529L42.8265 34.0951C42.4351 34.6502 42.3726 35.0686 42.4268 35.5746C42.5 36.164 42.9822 36.6715 43.9772 37.7064C44.0473 37.7694 44.2336 37.8674 44.4187 37.7548C44.6038 37.6422 44.6059 37.4719 44.5838 37.4008C44.3023 36.938 43.9541 36.6667 43.4053 36.0888C43.1298 35.8443 42.7629 35.0848 43.5376 34.1697C44.3048 33.2212 44.5238 32.8725 44.5238 32.8725Z" fill="white"/>
<g filter="url(#filter1_d_660_237)">
<path d="M22.7967 23.6063L27.0697 12.9509H36.9678L32.8571 23.6063H22.7967Z" fill="#E94FAB"/>
<path d="M25.9339 12.6264L18.7942 5.32453L14.3049 15.9799L21.7832 23.0338L25.9339 12.6264Z" fill="#E94FAB"/>
<path d="M26.8533 11.7069L20.2546 5H29.7741L36.5351 11.7069H26.8533Z" fill="#E94FAB"/>
</g>
<path d="M27.4021 20.7377C27.0789 19.9441 27.6045 19.3715 27.8495 19.1586C27.9992 19.062 28.341 18.5513 28.4459 18.2953L30.2006 15.0828C30.2431 15.0056 30.2525 14.8187 30.0683 14.6931C29.884 14.5674 29.6823 14.6777 29.6207 14.7935L27.644 18.3815C27.5775 18.5128 27.4878 18.6165 27.3626 18.7113C26.5088 19.3573 26.5437 20.7034 27.0218 21.3731C27.4483 21.9704 28.6843 22.0848 29.0986 22.0078C30.0064 21.745 30.2856 21.7748 30.9821 22.1204C31.5234 22.142 32.5451 21.9587 32.5676 20.8004C32.5902 19.6421 31.6992 19.3123 31.2071 19.2927C30.9776 19.3088 30.9294 19.4817 30.9152 19.6063C30.8849 19.8734 31.1904 19.8981 31.3679 19.9487C31.9064 20.0885 32.0071 20.5975 31.9682 20.8326C31.7963 21.5827 31.227 21.5212 30.9368 21.3815C30.2719 21.0001 29.4857 21.1757 29.1452 21.31C28.6763 21.449 27.7253 21.5313 27.4021 20.7377Z" fill="white"/>
<g filter="url(#filter2_d_660_237)">
<path d="M18.1738 41.955L14.7205 31.183L22.1424 25.0496L25.6472 35.5639L18.1738 41.955Z" fill="#3376C6"/>
<path d="M13.6382 31.4407L4 30.7191L7.35016 41.4911L17.0399 42.2127L13.6382 31.4407Z" fill="#3376C6"/>
<path d="M4.82465 29.5852L11.8342 23.6064L20.957 24.4311L13.8443 30.3583L4.82465 29.5852Z" fill="#3376C6"/>
</g>
<path d="M18.4684 30.1692C17.1436 30.9127 16.6705 32.5954 17.414 33.9202C17.4954 34.0653 17.6798 34.1171 17.8248 34.0356C17.9699 33.9542 18.0218 33.77 17.9403 33.6249C17.3597 32.5902 17.7291 31.2761 18.7637 30.6955C19.7983 30.1148 21.1124 30.4842 21.693 31.5189C22.0783 32.2054 21.9478 32.649 21.7965 33.1629C21.6322 33.7212 21.4461 34.3541 21.9475 35.2476C22.2147 35.7237 22.0446 36.3284 21.5686 36.5955C21.0926 36.8627 20.4879 36.6927 20.2208 36.2166C20.1393 36.0715 19.9551 36.0197 19.8099 36.1011C19.6648 36.1826 19.613 36.3669 19.6944 36.512C20.1245 37.2782 21.0977 37.5518 21.864 37.1218C22.6302 36.6918 22.9038 35.7185 22.4738 34.9522C22.0967 34.2803 22.226 33.8414 22.3756 33.3329C22.5413 32.7698 22.7291 32.1317 22.2194 31.2235C21.4759 29.8986 19.7932 29.4257 18.4684 30.1692Z" fill="white"/>
<defs>
<filter id="filter0_d_660_237" x="23.2578" y="23.6064" width="29.7422" height="26.6064" filterUnits="userSpaceOnUse" color-interpolation-filters="sRGB">
<feFlood flood-opacity="0" result="BackgroundImageFix"/>
<feColorMatrix in="SourceAlpha" type="matrix" values="0 0 0 0 0 0 0 0 0 0 0 0 0 0 0 0 0 0 127 0" result="hardAlpha"/>
<feOffset dy="4"/>
<feGaussianBlur stdDeviation="2"/>
<feColorMatrix type="matrix" values="0 0 0 0 0 0 0 0 0 0 0 0 0 0 0 0 0 0 0.25 0"/>
<feBlend mode="normal" in2="BackgroundImageFix" result="effect1_dropShadow_660_237"/>
<feBlend mode="normal" in="SourceGraphic" in2="effect1_dropShadow_660_237" result="shape"/>
</filter>
<filter id="filter1_d_660_237" x="10.3049" y="5" width="30.6628" height="26.6064" filterUnits="userSpaceOnUse" color-interpolation-filters="sRGB">
<feFlood flood-opacity="0" result="BackgroundImageFix"/>
<feColorMatrix in="SourceAlpha" type="matrix" values="0 0 0 0 0 0 0 0 0 0 0 0 0 0 0 0 0 0 127 0" result="hardAlpha"/>
<feOffset dy="4"/>
<feGaussianBlur stdDeviation="2"/>
<feColorMatrix type="matrix" values="0 0 0 0 0 0 0 0 0 0 0 0 0 0 0 0 0 0 0.25 0"/>
<feBlend mode="normal" in2="BackgroundImageFix" result="effect1_dropShadow_660_237"/>
<feBlend mode="normal" in="SourceGraphic" in2="effect1_dropShadow_660_237" result="shape"/>
</filter>
<filter id="filter2_d_660_237" x="0" y="23.6064" width="29.6472" height="26.6064" filterUnits="userSpaceOnUse" color-interpolation-filters="sRGB">
<feFlood flood-opacity="0" result="BackgroundImageFix"/>
<feColorMatrix in="SourceAlpha" type="matrix" values="0 0 0 0 0 0 0 0 0 0 0 0 0 0 0 0 0 0 127 0" result="hardAlpha"/>
<feOffset dy="4"/>
<feGaussianBlur stdDeviation="2"/>
<feColorMatrix type="matrix" values="0 0 0 0 0 0 0 0 0 0 0 0 0 0 0 0 0 0 0.25 0"/>
<feBlend mode="normal" in2="BackgroundImageFix" result="effect1_dropShadow_660_237"/>
<feBlend mode="normal" in="SourceGraphic" in2="effect1_dropShadow_660_237" result="shape"/>
</filter>
</defs>
</svg>
